<svg width="393" height="122" viewBox="0 0 393 122" fill="none" xmlns="http://www.w3.org/2000/svg">
<path d="M274.801 1.19247H393.606V56.9427H386.152C385.457 48.0982 382.773 39.999 378.103 32.6452C373.432 25.1919 367.271 19.3287 359.619 15.0555C351.967 10.6829 343.569 8.49665 334.427 8.49665C324.986 8.49665 316.241 10.832 308.191 15.5027C300.241 20.1734 293.931 26.5335 289.26 34.583C284.589 42.5331 282.254 51.2286 282.254 60.6693C282.254 70.1101 284.589 78.8056 289.26 86.7557C293.931 94.7058 300.241 101.016 308.191 105.687C316.241 110.258 324.986 112.544 334.427 112.544C343.768 112.544 352.315 110.308 360.066 105.836C367.917 101.265 374.128 95.3021 378.699 87.9482C383.27 80.495 385.755 72.6442 386.152 64.396H393.606V120.444H274.801V1.19247Z" fill="#F3F3F3"/>
<path d="M162.184 1.19247H189.164L243.424 83.3272H244.915V1.19247H268.765V120.444H240.89L187.525 41.589H186.034V120.444H162.184V1.19247Z" fill="#F3F3F3"/>
<path d="M-1 51.7255C-1 41.0922 1.9813 31.8999 7.94389 24.1485C14.0059 16.2978 22.5522 10.3352 33.583 6.26072C44.6138 2.08691 57.4334 0 72.0418 0H83.5198C98.0288 0 110.749 2.08691 121.68 6.26072C132.711 10.3352 141.208 16.2978 147.17 24.1485C153.232 31.8999 156.263 41.0922 156.263 51.7255V69.9114C156.263 80.5447 153.232 89.7867 147.17 97.6375C141.208 105.389 132.711 111.351 121.68 115.525C110.749 119.6 98.0288 121.637 83.5198 121.637H72.0418C57.4334 121.637 44.6138 119.6 33.583 115.525C22.5522 111.351 14.0059 105.389 7.94389 97.6375C1.9813 89.7867 -1 80.5447 -1 69.9114V51.7255ZM135.543 93.9109C136.438 93.9109 137.233 93.7121 137.928 93.3146C138.624 92.9171 139.171 92.3705 139.568 91.6749C139.966 90.9792 140.164 90.1842 140.164 89.2898V38.9059C140.164 38.1109 139.966 37.3656 139.568 36.67C139.171 35.9743 138.624 35.4277 137.928 35.0302C137.233 34.6327 136.438 34.434 135.543 34.434H19.571C18.7759 34.434 18.0306 34.6327 17.335 35.0302C16.6393 35.4277 16.0928 35.9743 15.6953 36.67C15.2978 37.3656 15.099 38.1109 15.099 38.9059V89.2898C15.099 90.1842 15.2978 90.9792 15.6953 91.6749C16.0928 92.3705 16.6393 92.9171 17.335 93.3146C18.0306 93.7121 18.7759 93.9109 19.571 93.9109H135.543Z" fill="#F3F3F3"/>
</svg>
