<svg width="1440" height="337" viewBox="0 0 1440 337" fill="none" xmlns="http://www.w3.org/2000/svg">
<path d="M33.5469 171.982H119.377C129.027 171.982 137.521 174.089 144.861 178.302C152.336 182.38 158.112 188.156 162.19 195.631C166.267 203.107 168.306 211.669 168.306 221.319C168.306 234.775 164.908 246.055 158.112 255.162C151.453 264.268 142.346 270.044 130.794 272.491L131.405 263.317L181.354 335.079H140.579L97.9702 273.714H66.1663V335.079H33.5469V171.982ZM114.892 246.395C121.687 246.395 127.396 244.153 132.017 239.667C136.638 235.182 138.948 229.678 138.948 223.154C138.948 216.494 136.774 211.125 132.425 207.048C128.211 202.835 123.046 200.728 116.93 200.728H66.1663V246.395H114.892Z" fill="#F3F3F3"/>
<path d="M-42.6607 335.079C-45.6508 335.079 -48.505 334.332 -51.2233 332.837C-53.8056 331.342 -55.8444 329.303 -57.3394 326.721C-58.8345 324.002 -59.582 321.148 -59.582 318.158V263.928C-59.582 260.938 -58.8345 258.152 -57.3394 255.569C-55.8444 252.851 -53.8056 250.744 -51.2233 249.249C-48.505 247.754 -45.6508 247.007 -42.6607 247.007H12.1807C12.5885 247.007 12.8603 246.939 12.9962 246.803C13.2681 246.531 13.4039 246.191 13.4039 245.784V243.949C13.4039 243.677 13.2681 243.473 12.9962 243.337C12.8603 243.065 12.5885 242.929 12.1807 242.929H-41.8452C-45.379 242.929 -48.3691 241.706 -50.8156 239.26C-53.1261 236.813 -54.2814 233.891 -54.2814 230.493V184.214C-54.2814 180.817 -53.1261 177.962 -50.8156 175.652C-48.3691 173.205 -45.379 171.982 -41.8452 171.982H25.2284V201.747C25.2284 203.378 24.6169 204.805 23.3936 206.029C22.1704 207.116 20.7433 207.66 19.1124 207.66H8.30715C6.67619 207.66 5.24911 207.116 4.02589 206.029C2.80266 204.805 2.191 203.378 2.191 201.747V180.545H-1.88641V210.106H14.4233C17.9571 210.106 21.0151 211.397 23.5975 213.98C26.1799 216.562 27.471 219.552 27.471 222.95V273.306C27.471 276.025 26.7915 278.539 25.4323 280.849C24.0732 283.024 22.2383 284.791 19.9278 286.15C17.7532 287.509 15.3067 288.189 12.5884 288.189H-1.88641V327.332H2.191V297.159C2.191 295.392 2.80266 293.897 4.02589 292.674C5.24911 291.451 6.67619 290.839 8.30715 290.839H20.7433C22.3743 290.839 23.8014 291.451 25.0246 292.674C26.2478 293.897 26.8595 295.392 26.8595 297.159V335.079H-42.6607Z" fill="#F3F3F3"/>
<path d="M33.4346 1.63087H70.3354L144.544 113.964H146.583V1.63087H179.203V164.728H141.079L68.0928 56.88H66.054V164.728H33.4346V1.63087Z" fill="#F3F3F3"/>
<path d="M-7.2998 1.63087H25.3196V164.728H-7.2998V1.63087Z" fill="#F3F3F3"/>
<path d="M1109.9 171.982H1195.73C1205.38 171.982 1213.87 174.089 1221.21 178.302C1228.69 182.38 1234.47 188.156 1238.54 195.631C1242.62 203.107 1244.66 211.669 1244.66 221.319C1244.66 234.775 1241.26 246.055 1234.47 255.162C1227.81 264.268 1218.7 270.044 1207.15 272.491L1207.76 263.317L1257.71 335.079H1216.93L1174.32 273.714H1142.52V335.079H1109.9V171.982ZM1191.25 246.395C1198.04 246.395 1203.75 244.153 1208.37 239.667C1212.99 235.182 1215.3 229.678 1215.3 223.154C1215.3 216.494 1213.13 211.125 1208.78 207.048C1204.56 202.835 1199.4 200.728 1193.28 200.728H1142.52V246.395H1191.25Z" fill="#F3F3F3"/>
<path d="M1033.69 335.079C1030.7 335.079 1027.85 334.332 1025.13 332.837C1022.55 331.342 1020.51 329.303 1019.01 326.721C1017.52 324.002 1016.77 321.148 1016.77 318.158V263.928C1016.77 260.938 1017.52 258.152 1019.01 255.569C1020.51 252.851 1022.55 250.744 1025.13 249.249C1027.85 247.754 1030.7 247.007 1033.69 247.007H1088.53C1088.94 247.007 1089.21 246.939 1089.35 246.803C1089.62 246.531 1089.76 246.191 1089.76 245.784V243.949C1089.76 243.677 1089.62 243.473 1089.35 243.337C1089.21 243.065 1088.94 242.929 1088.53 242.929H1034.51C1030.97 242.929 1027.98 241.706 1025.54 239.26C1023.23 236.813 1022.07 233.891 1022.07 230.493V184.214C1022.07 180.817 1023.23 177.962 1025.54 175.652C1027.98 173.205 1030.97 171.982 1034.51 171.982H1101.58V201.747C1101.58 203.378 1100.97 204.805 1099.75 206.029C1098.52 207.116 1097.1 207.66 1095.47 207.66H1084.66C1083.03 207.66 1081.6 207.116 1080.38 206.029C1079.16 204.805 1078.54 203.378 1078.54 201.747V180.545H1074.47V210.106H1090.78C1094.31 210.106 1097.37 211.397 1099.95 213.98C1102.53 216.562 1103.82 219.552 1103.82 222.95V273.306C1103.82 276.025 1103.14 278.539 1101.79 280.849C1100.43 283.024 1098.59 284.791 1096.28 286.15C1094.11 287.509 1091.66 288.189 1088.94 288.189H1074.47V327.332H1078.54V297.159C1078.54 295.392 1079.16 293.897 1080.38 292.674C1081.6 291.451 1083.03 290.839 1084.66 290.839H1097.1C1098.73 290.839 1100.15 291.451 1101.38 292.674C1102.6 293.897 1103.21 295.392 1103.21 297.159V335.079H1033.69Z" fill="#F3F3F3"/>
<path d="M812.947 189.515C812.947 186.117 813.763 182.991 815.394 180.137C817.025 177.283 819.267 175.04 822.121 173.409C825.112 171.642 828.374 170.759 831.907 170.759H887.564C890.962 170.759 894.088 171.642 896.942 173.409C899.932 175.04 902.243 177.283 903.874 180.137C905.641 182.991 906.524 186.117 906.524 189.515V288.801C906.524 289.888 906.864 290.839 907.544 291.655C908.359 292.334 909.31 292.674 910.398 292.674H913.252C914.339 292.674 915.223 292.334 915.902 291.655C916.718 290.839 917.126 289.888 917.126 288.801V189.515C917.126 186.117 917.941 182.991 919.572 180.137C921.339 177.283 923.649 175.04 926.504 173.409C929.494 171.642 932.688 170.759 936.086 170.759H991.946C995.208 170.759 998.266 171.642 1001.12 173.409C1004.11 175.04 1006.42 177.283 1008.05 180.137C1009.82 182.991 1010.7 186.117 1010.7 189.515V335.079H976.452C981.481 326.517 985.694 318.974 989.092 312.45C992.49 305.926 995.208 298.722 997.247 290.839C999.422 282.82 1000.51 273.17 1000.51 261.89C1000.51 255.366 998.81 249.317 995.412 243.745C992.15 238.173 987.733 233.755 982.161 230.493C976.588 227.231 970.54 225.6 964.016 225.6C957.22 225.6 951.036 227.231 945.464 230.493C939.891 233.619 935.474 238.037 932.212 243.745C928.95 249.317 927.319 255.366 927.319 261.89C927.319 273.17 928.338 282.82 930.377 290.839C932.552 298.722 935.338 305.926 938.736 312.45C942.27 318.974 946.551 326.517 951.58 335.079H872.07C877.099 326.517 881.312 318.974 884.71 312.45C888.244 305.926 891.03 298.722 893.069 290.839C895.243 282.82 896.331 273.17 896.331 261.89C896.331 255.366 894.632 249.317 891.234 243.745C887.972 238.173 883.555 233.755 877.982 230.493C872.41 227.231 866.294 225.6 859.634 225.6C852.974 225.6 846.858 227.231 841.285 230.493C835.713 233.619 831.296 238.037 828.034 243.745C824.772 249.317 823.141 255.366 823.141 261.89C823.141 273.17 824.16 282.82 826.199 290.839C828.374 298.722 831.16 305.926 834.558 312.45C837.956 318.974 842.237 326.517 847.402 335.079H812.947V189.515Z" fill="#F3F3F3"/>
<path d="M631.854 171.982H673.239L717.276 293.897H719.314L763.351 171.982H804.736V335.079H772.117V234.163H770.078L732.974 335.079H703.616L666.512 234.163H664.473V335.079H631.854V171.982Z" fill="#F3F3F3"/>
<path d="M363.011 336.099C358.254 336.099 354.176 335.079 350.778 333.041C347.38 330.866 344.798 328.012 343.031 324.478C341.264 320.808 340.381 316.867 340.381 312.654V171.982H437.22V267.598C437.22 273.578 438.647 279.151 441.501 284.315C444.491 289.344 448.501 293.354 453.529 296.344C458.694 299.334 464.335 300.829 470.451 300.829C476.431 300.829 481.936 299.334 486.964 296.344C492.129 293.354 496.139 289.344 498.993 284.315C501.983 279.151 503.478 273.578 503.478 267.598V184.215C503.478 179.729 504.633 176.399 506.944 174.225C509.254 172.05 512.109 170.963 515.506 170.963H526.515C528.826 170.963 530.865 171.507 532.632 172.594C534.398 173.681 536.029 175.244 537.524 177.283C539.02 179.186 540.786 182.04 542.825 185.846L621.723 323.663C622.811 325.701 623.422 327.604 623.558 329.371C623.694 331.002 623.286 332.361 622.335 333.448C621.52 334.536 620.092 335.079 618.054 335.079H530.797L531.001 220.504C531.001 218.873 530.389 217.514 529.166 216.426C527.943 215.203 526.515 214.591 524.884 214.591H521.623C519.584 214.591 518.021 215.203 516.933 216.426C515.982 217.649 515.506 219.009 515.506 220.504V312.654C515.506 319.857 513.943 325.565 510.817 329.779C507.827 333.992 502.187 336.099 493.896 336.099H363.011Z" fill="#F3F3F3"/>
<path d="M259.028 336.914C236.738 336.914 218.662 332.021 204.798 322.236C191.071 312.45 184.275 297.567 184.411 277.588H216.827C216.691 286.966 220.632 294.305 228.651 299.606C236.67 304.906 246.796 307.557 259.028 307.557C284.308 307.557 296.948 301.373 296.948 289.004C296.948 284.655 295.657 281.121 293.075 278.403C290.492 275.685 286.415 273.51 280.842 271.879C275.406 270.112 267.795 268.617 258.009 267.394C235.991 264.54 218.933 259.239 206.837 251.492C194.877 243.745 188.896 232.6 188.896 218.057C188.896 207.728 191.886 198.961 197.867 191.758C203.847 184.554 212.07 179.118 222.535 175.448C233.136 171.778 245.301 169.944 259.028 169.944C275.746 169.944 289.201 172.73 299.395 178.302C309.588 183.739 316.928 190.535 321.413 198.689C325.898 206.708 328.48 214.931 329.16 223.358H296.337C295.657 215.747 292.055 209.834 285.531 205.621C279.143 201.272 270.309 199.097 259.028 199.097C247.204 199.097 238.029 200.728 231.505 203.99C225.117 207.116 221.924 211.805 221.924 218.057C221.924 222.135 223.215 225.533 225.797 228.251C228.515 230.833 232.661 233.008 238.233 234.775C243.942 236.406 251.689 237.969 261.475 239.464C283.764 242.726 300.618 247.755 312.035 254.55C323.587 261.346 329.364 271.675 329.364 285.539C329.364 294.373 326.713 302.732 321.413 310.615C316.112 318.498 308.161 324.886 297.56 329.779C286.958 334.536 274.115 336.914 259.028 336.914Z" fill="#F3F3F3"/>
<path d="M1109.79 1.63087H1146.69L1220.9 113.964H1222.94V1.63087H1255.56V164.728H1217.43L1144.45 56.88H1142.41V164.728H1109.79V1.63087Z" fill="#F3F3F3"/>
<path d="M1069.05 1.63087H1101.67V164.728H1069.05V1.63087Z" fill="#F3F3F3"/>
<path d="M895.577 165.747C891.772 165.747 888.306 164.864 885.18 163.097C882.054 161.194 879.539 158.748 877.637 155.758C875.87 152.632 874.986 149.166 874.986 145.36V116.41C874.986 107.44 877.161 99.2173 881.51 91.742C885.859 84.1308 891.772 78.1506 899.247 73.8013C906.858 69.4521 915.217 67.2774 924.323 67.2774H979.776C984.126 67.2774 987.727 66.0542 990.581 63.6077C993.436 61.1613 995.27 58.1712 996.086 54.6374C997.037 50.9677 997.037 47.5699 996.086 44.4439C995.135 41.3178 993.368 38.8714 990.785 37.1045C988.339 35.2017 985.417 34.0464 982.019 33.6387C978.621 33.2309 975.155 33.6387 971.621 34.8619L925.75 50.1522V1.63087H978.349C981.611 1.63087 984.397 2.31044 986.708 3.66958C989.154 5.02872 991.125 7.20335 992.62 10.1935L1061.32 150.049C1062.68 152.903 1063.16 155.486 1062.75 157.796C1062.34 159.971 1061.32 161.67 1059.69 162.893C1058.06 164.116 1056.3 164.728 1054.39 164.728H996.698C993.843 164.728 991.465 163.777 989.562 161.874C987.795 159.835 987.523 157.253 988.747 154.127L996.29 135.778L998.94 129.254C1002.07 121.371 1004.31 115.051 1005.67 110.294C1007.16 105.401 1007.91 100.984 1007.91 97.0427C1007.91 92.4216 1006.42 88.548 1003.43 85.422C1000.57 82.296 996.698 80.7329 991.805 80.7329C987.319 80.7329 983.446 82.3639 980.184 85.6259C977.058 88.7519 975.495 92.5575 975.495 97.0427V145.36C975.495 149.03 974.544 152.428 972.641 155.554C970.874 158.68 968.427 161.194 965.301 163.097C962.175 164.864 958.777 165.747 955.108 165.747H895.577ZM925.75 144.952C931.051 144.952 935.876 143.729 940.225 141.283C944.574 138.7 947.972 135.235 950.419 130.885C953.001 126.536 954.292 121.643 954.292 116.207C954.292 110.906 953.001 106.081 950.419 101.732C947.972 97.3824 944.574 93.9846 940.225 91.5381C935.876 88.9558 931.051 87.6646 925.75 87.6646C920.45 87.6646 915.557 88.9558 911.072 91.5381C906.722 93.9846 903.257 97.3824 900.674 101.732C898.228 106.081 897.004 110.906 897.004 116.207C897.004 121.643 898.228 126.536 900.674 130.885C903.257 135.235 906.722 138.7 911.072 141.283C915.421 143.729 920.314 144.952 925.75 144.952Z" fill="#F3F3F3"/>
<path d="M729.179 1.63089H761.798V68.0929H836.211V1.42701H868.831V164.524H836.211V99.2853H761.798V164.728H729.179V1.63089Z" fill="#F3F3F3"/>
<path d="M558.556 1.63087H721.041V77.8787H710.848C709.896 65.7824 706.227 54.7054 699.839 44.6477C693.451 34.4542 685.024 26.4352 674.558 20.5909C664.093 14.6107 652.608 11.6206 640.104 11.6206C627.192 11.6206 615.232 14.8145 604.223 21.2025C593.35 27.5905 584.719 36.289 578.331 47.298C571.943 58.1712 568.749 70.0637 568.749 82.9755C568.749 95.8874 571.943 107.78 578.331 118.653C584.719 129.526 593.35 138.157 604.223 144.545C615.232 150.797 627.192 153.923 640.104 153.923C652.88 153.923 664.569 150.865 675.17 144.749C685.907 138.496 694.402 130.342 700.654 120.284C706.906 110.09 710.304 99.3532 710.848 88.0723H721.041V164.728H558.556V1.63087Z" fill="#F3F3F3"/>
<path d="M404.536 1.63087H441.437L515.646 113.964H517.685V1.63087H550.304V164.728H512.18L439.194 56.88H437.156V164.728H404.536V1.63087Z" fill="#F3F3F3"/>
<path d="M181.354 70.7434C181.354 56.2005 185.431 43.6285 193.586 33.0272C201.877 22.2899 213.565 14.1351 228.652 8.5626C243.738 2.8542 261.271 0 281.25 0H296.949C316.792 0 334.189 2.8542 349.14 8.5626C364.226 14.1351 375.847 22.2899 384.002 33.0272C392.292 43.6285 396.438 56.2005 396.438 70.7434V95.6157C396.438 110.158 392.292 122.799 384.002 133.536C375.847 144.137 364.226 152.292 349.14 158C334.189 163.573 316.792 166.359 296.949 166.359H281.25C261.271 166.359 243.738 163.573 228.652 158C213.565 152.292 201.877 144.137 193.586 133.536C185.431 122.799 181.354 110.158 181.354 95.6157V70.7434ZM368.1 128.439C369.323 128.439 370.41 128.167 371.362 127.623C372.313 127.08 373.061 126.332 373.604 125.381C374.148 124.429 374.42 123.342 374.42 122.119V53.2104C374.42 52.1231 374.148 51.1038 373.604 50.1524C373.061 49.201 372.313 48.4534 371.362 47.9098C370.41 47.3661 369.323 47.0943 368.1 47.0943H209.488C208.4 47.0943 207.381 47.3661 206.43 47.9098C205.478 48.4534 204.731 49.201 204.187 50.1524C203.643 51.1038 203.372 52.1231 203.372 53.2104V122.119C203.372 123.342 203.643 124.429 204.187 125.381C204.731 126.332 205.478 127.08 206.43 127.623C207.381 128.167 208.4 128.439 209.488 128.439H368.1Z" fill="#F3F3F3"/>
<path d="M1439.36 336.099C1434.61 336.099 1430.53 335.079 1427.13 333.041C1423.73 330.866 1421.15 328.012 1419.38 324.478C1417.62 320.808 1416.73 316.867 1416.73 312.654V171.982H1513.57V267.598C1513.57 273.578 1515 279.151 1517.85 284.315C1520.84 289.344 1524.85 293.354 1529.88 296.344C1535.05 299.334 1540.69 300.829 1546.8 300.829C1552.78 300.829 1558.29 299.334 1563.32 296.344C1568.48 293.354 1572.49 289.344 1575.35 284.315C1578.34 279.151 1579.83 273.578 1579.83 267.598V184.215C1579.83 179.729 1580.99 176.399 1583.3 174.225C1585.61 172.05 1588.46 170.963 1591.86 170.963H1602.87C1605.18 170.963 1607.22 171.507 1608.98 172.594C1610.75 173.681 1612.38 175.244 1613.88 177.283C1615.37 179.186 1617.14 182.04 1619.18 185.846L1698.08 323.663C1699.16 325.701 1699.77 327.604 1699.91 329.371C1700.05 331.002 1699.64 332.361 1698.69 333.448C1697.87 334.536 1696.44 335.079 1694.41 335.079H1607.15L1607.35 220.504C1607.35 218.873 1606.74 217.514 1605.52 216.426C1604.3 215.203 1602.87 214.591 1601.24 214.591H1597.98C1595.94 214.591 1594.37 215.203 1593.29 216.426C1592.33 217.649 1591.86 219.009 1591.86 220.504V312.654C1591.86 319.857 1590.3 325.565 1587.17 329.779C1584.18 333.992 1578.54 336.099 1570.25 336.099H1439.36Z" fill="#F3F3F3"/>
<path d="M1335.38 336.914C1313.09 336.914 1295.01 332.021 1281.15 322.236C1267.42 312.45 1260.63 297.567 1260.76 277.588H1293.18C1293.04 286.966 1296.98 294.305 1305 299.606C1313.02 304.906 1323.15 307.557 1335.38 307.557C1360.66 307.557 1373.3 301.373 1373.3 289.004C1373.3 284.655 1372.01 281.121 1369.43 278.403C1366.84 275.685 1362.77 273.51 1357.19 271.879C1351.76 270.112 1344.15 268.617 1334.36 267.394C1312.34 264.54 1295.29 259.239 1283.19 251.492C1271.23 243.745 1265.25 232.6 1265.25 218.057C1265.25 207.728 1268.24 198.961 1274.22 191.758C1280.2 184.554 1288.42 179.118 1298.89 175.448C1309.49 171.778 1321.65 169.944 1335.38 169.944C1352.1 169.944 1365.55 172.73 1375.75 178.302C1385.94 183.739 1393.28 190.535 1397.77 198.689C1402.25 206.708 1404.83 214.931 1405.51 223.358H1372.69C1372.01 215.747 1368.41 209.834 1361.88 205.621C1355.5 201.272 1346.66 199.097 1335.38 199.097C1323.56 199.097 1314.38 200.728 1307.86 203.99C1301.47 207.116 1298.28 211.805 1298.28 218.057C1298.28 222.135 1299.57 225.533 1302.15 228.251C1304.87 230.833 1309.01 233.008 1314.59 234.775C1320.29 236.406 1328.04 237.969 1337.83 239.464C1360.12 242.726 1376.97 247.755 1388.39 254.55C1399.94 261.346 1405.72 271.675 1405.72 285.539C1405.72 294.373 1403.07 302.732 1397.77 310.615C1392.46 318.498 1384.51 324.886 1373.91 329.779C1363.31 334.536 1350.47 336.914 1335.38 336.914Z" fill="#F3F3F3"/>
<path d="M1257.71 70.7434C1257.71 56.2005 1261.78 43.6285 1269.94 33.0272C1278.23 22.2899 1289.92 14.1351 1305 8.5626C1320.09 2.8542 1337.62 0 1357.6 0H1373.3C1393.14 0 1410.54 2.8542 1425.49 8.5626C1440.58 14.1351 1452.2 22.2899 1460.35 33.0272C1468.64 43.6285 1472.79 56.2005 1472.79 70.7434V95.6157C1472.79 110.158 1468.64 122.799 1460.35 133.536C1452.2 144.137 1440.58 152.292 1425.49 158C1410.54 163.573 1393.14 166.359 1373.3 166.359H1357.6C1337.62 166.359 1320.09 163.573 1305 158C1289.92 152.292 1278.23 144.137 1269.94 133.536C1261.78 122.799 1257.71 110.158 1257.71 95.6157V70.7434ZM1444.45 128.439C1445.68 128.439 1446.76 128.167 1447.71 127.623C1448.67 127.08 1449.41 126.332 1449.96 125.381C1450.5 124.429 1450.77 123.342 1450.77 122.119V53.2104C1450.77 52.1231 1450.5 51.1038 1449.96 50.1524C1449.41 49.201 1448.67 48.4534 1447.71 47.9098C1446.76 47.3661 1445.68 47.0943 1444.45 47.0943H1285.84C1284.75 47.0943 1283.73 47.3661 1282.78 47.9098C1281.83 48.4534 1281.08 49.201 1280.54 50.1524C1280 51.1038 1279.72 52.1231 1279.72 53.2104V122.119C1279.72 123.342 1280 124.429 1280.54 125.381C1281.08 126.332 1281.83 127.08 1282.78 127.623C1283.73 128.167 1284.75 128.439 1285.84 128.439H1444.45Z" fill="#F3F3F3"/>
</svg>
