<svg width="744" height="337" viewBox="0 0 744 337" fill="none" xmlns="http://www.w3.org/2000/svg">
<path d="M685.693 335.079C682.703 335.079 679.849 334.332 677.13 332.837C674.548 331.342 672.509 329.303 671.014 326.721C669.519 324.002 668.771 321.148 668.771 318.158V263.928C668.771 260.938 669.519 258.152 671.014 255.569C672.509 252.851 674.548 250.744 677.13 249.249C679.849 247.754 682.703 247.007 685.693 247.007H740.534C740.942 247.007 741.214 246.939 741.35 246.803C741.622 246.531 741.757 246.191 741.757 245.784V243.949C741.757 243.677 741.622 243.473 741.35 243.337C741.214 243.065 740.942 242.929 740.534 242.929H686.508C682.975 242.929 679.984 241.706 677.538 239.26C675.227 236.813 674.072 233.891 674.072 230.493V184.214C674.072 180.817 675.227 177.962 677.538 175.652C679.984 173.205 682.975 171.982 686.508 171.982H753.582V201.747C753.582 203.378 752.97 204.805 751.747 206.029C750.524 207.116 749.097 207.66 747.466 207.66H736.661C735.03 207.66 733.603 207.116 732.379 206.029C731.156 204.805 730.545 203.378 730.545 201.747V180.545H726.467V210.106H742.777C746.311 210.106 749.369 211.397 751.951 213.98C754.533 216.562 755.825 219.552 755.825 222.95V273.306C755.825 276.025 755.145 278.539 753.786 280.849C752.427 283.024 750.592 284.791 748.281 286.15C746.107 287.509 743.66 288.189 740.942 288.189H726.467V327.332H730.545V297.159C730.545 295.392 731.156 293.897 732.379 292.674C733.603 291.451 735.03 290.839 736.661 290.839H749.097C750.728 290.839 752.155 291.451 753.378 292.674C754.601 293.897 755.213 295.392 755.213 297.159V335.079H685.693Z" fill="#F3F3F3"/>
<path d="M464.947 189.515C464.947 186.117 465.763 182.991 467.394 180.137C469.025 177.283 471.267 175.04 474.121 173.409C477.112 171.642 480.374 170.759 483.907 170.759H539.564C542.962 170.759 546.088 171.642 548.942 173.409C551.932 175.04 554.243 177.283 555.874 180.137C557.641 182.991 558.524 186.117 558.524 189.515V288.801C558.524 289.888 558.864 290.839 559.544 291.655C560.359 292.334 561.31 292.674 562.398 292.674H565.252C566.339 292.674 567.223 292.334 567.902 291.655C568.718 290.839 569.126 289.888 569.126 288.801V189.515C569.126 186.117 569.941 182.991 571.572 180.137C573.339 177.283 575.649 175.04 578.504 173.409C581.494 171.642 584.688 170.759 588.086 170.759H643.946C647.208 170.759 650.266 171.642 653.121 173.409C656.111 175.04 658.421 177.283 660.052 180.137C661.819 182.991 662.703 186.117 662.703 189.515V335.079H628.452C633.481 326.517 637.694 318.974 641.092 312.45C644.49 305.926 647.208 298.722 649.247 290.839C651.422 282.82 652.509 273.17 652.509 261.89C652.509 255.366 650.81 249.317 647.412 243.745C644.15 238.173 639.733 233.755 634.161 230.493C628.588 227.231 622.54 225.6 616.016 225.6C609.22 225.6 603.036 227.231 597.464 230.493C591.891 233.619 587.474 238.037 584.212 243.745C580.95 249.317 579.319 255.366 579.319 261.89C579.319 273.17 580.338 282.82 582.377 290.839C584.552 298.722 587.338 305.926 590.736 312.45C594.27 318.974 598.551 326.517 603.58 335.079H524.07C529.099 326.517 533.312 318.974 536.71 312.45C540.244 305.926 543.03 298.722 545.069 290.839C547.243 282.82 548.331 273.17 548.331 261.89C548.331 255.366 546.632 249.317 543.234 243.745C539.972 238.173 535.555 233.755 529.982 230.493C524.41 227.231 518.294 225.6 511.634 225.6C504.974 225.6 498.858 227.231 493.285 230.493C487.713 233.619 483.296 238.037 480.034 243.745C476.772 249.317 475.141 255.366 475.141 261.89C475.141 273.17 476.16 282.82 478.199 290.839C480.374 298.722 483.16 305.926 486.558 312.45C489.956 318.974 494.237 326.517 499.402 335.079H464.947V189.515Z" fill="#F3F3F3"/>
<path d="M283.854 171.982H325.239L369.276 293.897H371.314L415.351 171.982H456.736V335.079H424.117V234.163H422.078L384.974 335.079H355.616L318.512 234.163H316.473V335.079H283.854V171.982Z" fill="#F3F3F3"/>
<path d="M15.0106 336.099C10.2536 336.099 6.17616 335.079 2.7783 333.041C-0.619555 330.866 -3.20192 328.012 -4.96881 324.478C-6.7357 320.808 -7.61914 316.867 -7.61914 312.654V171.982H89.2198V267.598C89.2198 273.578 90.6469 279.151 93.5011 284.315C96.4912 289.344 100.501 293.354 105.529 296.344C110.694 299.334 116.335 300.829 122.451 300.829C128.431 300.829 133.936 299.334 138.964 296.344C144.129 293.354 148.139 289.344 150.993 284.315C153.983 279.151 155.478 273.578 155.478 267.598V184.215C155.478 179.729 156.633 176.399 158.944 174.225C161.254 172.05 164.109 170.963 167.506 170.963H178.515C180.826 170.963 182.865 171.507 184.632 172.594C186.398 173.681 188.029 175.244 189.524 177.283C191.02 179.186 192.786 182.04 194.825 185.846L273.723 323.663C274.811 325.701 275.422 327.604 275.558 329.371C275.694 331.002 275.286 332.361 274.335 333.448C273.52 334.536 272.092 335.079 270.054 335.079H182.797L183.001 220.504C183.001 218.873 182.389 217.514 181.166 216.426C179.943 215.203 178.515 214.591 176.884 214.591H173.623C171.584 214.591 170.021 215.203 168.933 216.426C167.982 217.649 167.506 219.009 167.506 220.504V312.654C167.506 319.857 165.943 325.565 162.817 329.779C159.827 333.992 154.187 336.099 145.896 336.099H15.0106Z" fill="#F3F3F3"/>
<path d="M721.054 1.63087H753.673V164.728H721.054V1.63087Z" fill="#F3F3F3"/>
<path d="M547.577 165.747C543.772 165.747 540.306 164.864 537.18 163.097C534.054 161.194 531.539 158.748 529.637 155.758C527.87 152.632 526.986 149.166 526.986 145.36V116.41C526.986 107.44 529.161 99.2173 533.51 91.742C537.859 84.1308 543.772 78.1506 551.247 73.8013C558.858 69.4521 567.217 67.2774 576.323 67.2774H631.776C636.126 67.2774 639.727 66.0542 642.581 63.6077C645.436 61.1613 647.27 58.1712 648.086 54.6374C649.037 50.9677 649.037 47.5699 648.086 44.4439C647.135 41.3178 645.368 38.8714 642.785 37.1045C640.339 35.2017 637.417 34.0464 634.019 33.6387C630.621 33.2309 627.155 33.6387 623.621 34.8619L577.75 50.1522V1.63087H630.349C633.611 1.63087 636.397 2.31044 638.708 3.66958C641.154 5.02872 643.125 7.20335 644.62 10.1935L713.325 150.049C714.684 152.903 715.16 155.486 714.752 157.796C714.344 159.971 713.325 161.67 711.694 162.893C710.063 164.116 708.296 164.728 706.393 164.728H648.698C645.843 164.728 643.465 163.777 641.562 161.874C639.795 159.835 639.523 157.253 640.747 154.127L648.29 135.778L650.94 129.254C654.066 121.371 656.309 115.051 657.668 110.294C659.163 105.401 659.91 100.984 659.91 97.0427C659.91 92.4216 658.415 88.548 655.425 85.422C652.571 82.296 648.698 80.7329 643.805 80.7329C639.319 80.7329 635.446 82.3639 632.184 85.6259C629.058 88.7519 627.495 92.5575 627.495 97.0427V145.36C627.495 149.03 626.544 152.428 624.641 155.554C622.874 158.68 620.427 161.194 617.301 163.097C614.175 164.864 610.777 165.747 607.108 165.747H547.577ZM577.75 144.952C583.051 144.952 587.876 143.729 592.225 141.283C596.574 138.7 599.972 135.235 602.419 130.885C605.001 126.536 606.292 121.643 606.292 116.207C606.292 110.906 605.001 106.081 602.419 101.732C599.972 97.3824 596.574 93.9846 592.225 91.5381C587.876 88.9558 583.051 87.6646 577.75 87.6646C572.45 87.6646 567.557 88.9558 563.072 91.5381C558.722 93.9846 555.257 97.3824 552.674 101.732C550.228 106.081 549.004 110.906 549.004 116.207C549.004 121.643 550.228 126.536 552.674 130.885C555.257 135.235 558.722 138.7 563.072 141.283C567.421 143.729 572.314 144.952 577.75 144.952Z" fill="#F3F3F3"/>
<path d="M381.179 1.63089H413.798V68.0929H488.211V1.42701H520.831V164.524H488.211V99.2853H413.798V164.728H381.179V1.63089Z" fill="#F3F3F3"/>
<path d="M210.556 1.63087H373.041V77.8787H362.848C361.896 65.7824 358.227 54.7054 351.839 44.6477C345.451 34.4542 337.024 26.4352 326.558 20.5909C316.093 14.6107 304.608 11.6206 292.104 11.6206C279.192 11.6206 267.232 14.8145 256.223 21.2025C245.35 27.5905 236.719 36.289 230.331 47.298C223.943 58.1712 220.749 70.0637 220.749 82.9755C220.749 95.8874 223.943 107.78 230.331 118.653C236.719 129.526 245.35 138.157 256.223 144.545C267.232 150.797 279.192 153.923 292.104 153.923C304.88 153.923 316.569 150.865 327.17 144.749C337.907 138.496 346.402 130.342 352.654 120.284C358.906 110.09 362.304 99.3532 362.848 88.0723H373.041V164.728H210.556V1.63087Z" fill="#F3F3F3"/>
<path d="M56.5361 1.63087H93.4369L167.646 113.964H169.685V1.63087H202.304V164.728H164.18L91.1943 56.88H89.1555V164.728H56.5361V1.63087Z" fill="#F3F3F3"/>
<path d="M-166.646 70.7434C-166.646 56.2005 -162.569 43.6285 -154.414 33.0272C-146.123 22.2899 -134.435 14.1351 -119.348 8.5626C-104.262 2.8542 -86.7289 0 -66.7495 0H-51.0514C-31.2079 0 -13.8109 2.8542 1.13966 8.5626C16.2262 14.1351 27.8468 22.2899 36.0017 33.0272C44.2924 43.6285 48.4378 56.2005 48.4378 70.7434V95.6157C48.4378 110.158 44.2924 122.799 36.0017 133.536C27.8468 144.137 16.2262 152.292 1.13966 158C-13.8109 163.573 -31.2079 166.359 -51.0514 166.359H-66.7495C-86.7289 166.359 -104.262 163.573 -119.348 158C-134.435 152.292 -146.123 144.137 -154.414 133.536C-162.569 122.799 -166.646 110.158 -166.646 95.6157V70.7434ZM20.0997 128.439C21.3229 128.439 22.4102 128.167 23.3616 127.623C24.313 127.08 25.0606 126.332 25.6042 125.381C26.1479 124.429 26.4197 123.342 26.4197 122.119V53.2104C26.4197 52.1231 26.1479 51.1038 25.6042 50.1524C25.0606 49.201 24.313 48.4534 23.3616 47.9098C22.4102 47.3661 21.3229 47.0943 20.0997 47.0943H-138.512C-139.6 47.0943 -140.619 47.3661 -141.57 47.9098C-142.522 48.4534 -143.269 49.201 -143.813 50.1524C-144.357 51.1038 -144.628 52.1231 -144.628 53.2104V122.119C-144.628 123.342 -144.357 124.429 -143.813 125.381C-143.269 126.332 -142.522 127.08 -141.57 127.623C-140.619 128.167 -139.6 128.439 -138.512 128.439H20.0997Z" fill="#F3F3F3"/>
</svg>
