<svg width="4303" height="168" viewBox="0 0 4303 168" fill="none" xmlns="http://www.w3.org/2000/svg">
<path d="M925.547 2.98242H1011.38C1021.03 2.98242 1029.52 5.08908 1036.86 9.30241C1044.34 13.3798 1050.11 19.1562 1054.19 26.6315C1058.27 34.1068 1060.31 42.6694 1060.31 52.3193C1060.31 65.7748 1056.91 77.0557 1050.11 86.1619C1043.45 95.2682 1034.35 101.045 1022.79 103.491L1023.41 94.3168L1073.35 166.079H1032.58L989.97 104.714H958.166V166.079H925.547V2.98242ZM1006.89 77.3955C1013.69 77.3955 1019.4 75.1529 1024.02 70.6677C1028.64 66.1825 1030.95 60.678 1030.95 54.1541C1030.95 47.4943 1028.77 42.1257 1024.42 38.0483C1020.21 33.835 1015.05 31.7283 1008.93 31.7283H958.166V77.3955H1006.89Z" fill="#F3F3F3"/>
<path d="M849.339 166.079C846.349 166.079 843.495 165.332 840.777 163.837C838.194 162.342 836.156 160.303 834.661 157.721C833.166 155.003 832.418 152.148 832.418 149.158V94.9284C832.418 91.9383 833.166 89.152 834.661 86.5697C836.156 83.8514 838.194 81.7447 840.777 80.2497C843.495 78.7546 846.349 78.0071 849.339 78.0071H904.181C904.588 78.0071 904.86 77.9391 904.996 77.8032C905.268 77.5314 905.404 77.1916 905.404 76.7838V74.949C905.404 74.6772 905.268 74.4733 904.996 74.3374C904.86 74.0656 904.588 73.9296 904.181 73.9296H850.155C846.621 73.9296 843.631 72.7064 841.184 70.26C838.874 67.8135 837.719 64.8913 837.719 61.4935V15.2147C837.719 11.8168 838.874 8.96264 841.184 6.65209C843.631 4.20564 846.621 2.98242 850.155 2.98242H917.228V32.7476C917.228 34.3786 916.617 35.8057 915.394 37.0289C914.17 38.1163 912.743 38.6599 911.112 38.6599H900.307C898.676 38.6599 897.249 38.1163 896.026 37.0289C894.803 35.8057 894.191 34.3786 894.191 32.7476V11.545H890.114V41.1064H906.423C909.957 41.1064 913.015 42.3975 915.597 44.9799C918.18 47.5623 919.471 50.5524 919.471 53.9503V104.306C919.471 107.025 918.791 109.539 917.432 111.85C916.073 114.024 914.238 115.791 911.928 117.15C909.753 118.51 907.307 119.189 904.588 119.189H890.114V158.332H894.191V128.159C894.191 126.393 894.803 124.897 896.026 123.674C897.249 122.451 898.676 121.839 900.307 121.839H912.743C914.374 121.839 915.801 122.451 917.025 123.674C918.248 124.897 918.859 126.393 918.859 128.159V166.079H849.339Z" fill="#F3F3F3"/>
<path d="M628.594 20.5154C628.594 17.1176 629.409 13.9916 631.04 11.1374C632.671 8.28316 634.914 6.04058 637.768 4.40961C640.758 2.64272 644.02 1.75928 647.554 1.75928H703.211C706.609 1.75928 709.735 2.64272 712.589 4.40961C715.579 6.04058 717.889 8.28316 719.52 11.1374C721.287 13.9916 722.171 17.1176 722.171 20.5154V119.801C722.171 120.888 722.511 121.84 723.19 122.655C724.006 123.335 724.957 123.674 726.044 123.674H728.899C729.986 123.674 730.869 123.335 731.549 122.655C732.364 121.84 732.772 120.888 732.772 119.801V20.5154C732.772 17.1176 733.588 13.9916 735.219 11.1374C736.985 8.28316 739.296 6.04058 742.15 4.40961C745.14 2.64272 748.334 1.75928 751.732 1.75928H807.593C810.855 1.75928 813.913 2.64272 816.767 4.40961C819.757 6.04058 822.068 8.28316 823.699 11.1374C825.466 13.9916 826.349 17.1176 826.349 20.5154V166.08H792.099C797.127 157.517 801.341 149.974 804.739 143.45C808.137 136.926 810.855 129.723 812.893 121.84C815.068 113.821 816.155 104.171 816.155 92.8898C816.155 86.3659 814.457 80.3177 811.059 74.7452C807.797 69.1728 803.379 64.7555 797.807 61.4936C792.234 58.2317 786.186 56.6007 779.662 56.6007C772.867 56.6007 766.683 58.2317 761.11 61.4936C755.538 64.6196 751.12 69.0368 747.859 74.7452C744.597 80.3177 742.966 86.3659 742.966 92.8898C742.966 104.171 743.985 113.821 746.024 121.84C748.198 129.723 750.985 136.926 754.382 143.45C757.916 149.974 762.197 157.517 767.226 166.08H687.716C692.745 157.517 696.959 149.974 700.356 143.45C703.89 136.926 706.677 129.723 708.715 121.84C710.89 113.821 711.977 104.171 711.977 92.8898C711.977 86.3659 710.278 80.3177 706.88 74.7452C703.618 69.1728 699.201 64.7555 693.629 61.4936C688.056 58.2317 681.94 56.6007 675.28 56.6007C668.62 56.6007 662.504 58.2317 656.932 61.4936C651.359 64.6196 646.942 69.0368 643.68 74.7452C640.418 80.3177 638.787 86.3659 638.787 92.8898C638.787 104.171 639.807 113.821 641.845 121.84C644.02 129.723 646.806 136.926 650.204 143.45C653.602 149.974 657.883 157.517 663.048 166.08H628.594V20.5154Z" fill="#F3F3F3"/>
<path d="M447.5 2.98242H488.886L532.922 124.897H534.961L578.997 2.98242H620.383V166.079H587.764V65.1632H585.725L548.62 166.079H519.263L482.158 65.1632H480.119V166.079H447.5V2.98242Z" fill="#F3F3F3"/>
<path d="M178.657 167.099C173.9 167.099 169.823 166.079 166.425 164.041C163.027 161.866 160.445 159.012 158.678 155.478C156.911 151.808 156.027 147.867 156.027 143.654V2.98226H252.866V98.5979C252.866 104.578 254.293 110.151 257.148 115.315C260.138 120.344 264.147 124.354 269.176 127.344C274.341 130.334 279.981 131.829 286.097 131.829C292.077 131.829 297.582 130.334 302.611 127.344C307.776 124.354 311.785 120.344 314.639 115.315C317.629 110.151 319.124 104.578 319.124 98.5979V15.2146C319.124 10.7294 320.28 7.39947 322.59 5.22485C324.901 3.05021 327.755 1.96289 331.153 1.96289H342.162C344.472 1.96289 346.511 2.50655 348.278 3.59387C350.045 4.68118 351.676 6.24419 353.171 8.2829C354.666 10.1857 356.433 13.0399 358.472 16.8455L437.37 154.663C438.457 156.701 439.069 158.604 439.205 160.371C439.341 162.002 438.933 163.361 437.981 164.448C437.166 165.536 435.739 166.079 433.7 166.079H346.443L346.647 51.5036C346.647 49.8727 346.035 48.5135 344.812 47.4262C343.589 46.203 342.162 45.5914 340.531 45.5914H337.269C335.23 45.5914 333.667 46.203 332.58 47.4262C331.629 48.6494 331.153 50.0086 331.153 51.5036V143.654C331.153 150.857 329.59 156.565 326.464 160.779C323.474 164.992 317.833 167.099 309.542 167.099H178.657Z" fill="#F3F3F3"/>
<path d="M74.6736 167.915C52.3837 167.915 34.3071 163.022 20.4438 153.236C6.71648 143.45 -0.0792278 128.567 0.0566862 108.588H32.4722C32.3363 117.966 36.2778 125.305 44.2968 130.606C52.3157 135.907 62.4413 138.557 74.6736 138.557C99.9537 138.557 112.594 132.373 112.594 120.005C112.594 115.655 111.302 112.122 108.72 109.403C106.138 106.685 102.06 104.511 96.4878 102.88C91.0513 101.113 83.4401 99.6176 73.6543 98.3944C51.6361 95.5402 34.5789 90.2395 22.4825 82.4924C10.5221 74.7453 4.54186 63.6003 4.54186 49.0575C4.54186 38.728 7.53197 29.9615 13.5122 22.7581C19.4924 15.5546 27.7152 10.1181 38.1806 6.44838C48.7819 2.77869 60.9463 0.943848 74.6736 0.943848C91.3911 0.943848 104.847 3.73008 115.04 9.30256C125.234 14.7391 132.573 21.5349 137.058 29.6897C141.543 37.7087 144.126 45.9315 144.805 54.3581H111.982C111.302 46.7469 107.701 40.8347 101.177 36.6213C94.7889 32.2721 85.9545 30.0974 74.6736 30.0974C62.8491 30.0974 53.6749 31.7284 47.151 34.9904C40.763 38.1164 37.569 42.8054 37.569 49.0575C37.569 53.1349 38.8602 56.5328 41.4426 59.2511C44.1609 61.8334 48.3062 64.0081 53.8787 65.775C59.5871 67.4059 67.3342 68.9689 77.1201 70.464C99.41 73.7259 116.263 78.7548 127.68 85.5505C139.233 92.3462 145.009 102.676 145.009 116.539C145.009 125.373 142.359 133.732 137.058 141.615C131.758 149.498 123.807 155.886 113.205 160.779C102.604 165.536 89.7601 167.915 74.6736 167.915Z" fill="#F3F3F3"/>
<path d="M2001.9 2.98242H2087.73C2097.38 2.98242 2105.87 5.08908 2113.21 9.30241C2120.69 13.3798 2126.47 19.1562 2130.54 26.6315C2134.62 34.1068 2136.66 42.6694 2136.66 52.3193C2136.66 65.7748 2133.26 77.0557 2126.47 86.1619C2119.81 95.2682 2110.7 101.045 2099.15 103.491L2099.76 94.3168L2149.71 166.079H2108.93L2066.32 104.714H2034.52V166.079H2001.9V2.98242ZM2083.25 77.3955C2090.04 77.3955 2095.75 75.1529 2100.37 70.6677C2104.99 66.1825 2107.3 60.678 2107.3 54.1541C2107.3 47.4943 2105.13 42.1257 2100.78 38.0483C2096.56 33.835 2091.4 31.7283 2085.28 31.7283H2034.52V77.3955H2083.25Z" fill="#F3F3F3"/>
<path d="M1925.69 166.079C1922.7 166.079 1919.85 165.332 1917.13 163.837C1914.55 162.342 1912.51 160.303 1911.01 157.721C1909.52 155.003 1908.77 152.148 1908.77 149.158V94.9284C1908.77 91.9383 1909.52 89.152 1911.01 86.5697C1912.51 83.8514 1914.55 81.7447 1917.13 80.2497C1919.85 78.7546 1922.7 78.0071 1925.69 78.0071H1980.53C1980.94 78.0071 1981.21 77.9391 1981.35 77.8032C1981.62 77.5314 1981.76 77.1916 1981.76 76.7838V74.949C1981.76 74.6772 1981.62 74.4733 1981.35 74.3374C1981.21 74.0656 1980.94 73.9296 1980.53 73.9296H1926.51C1922.97 73.9296 1919.98 72.7064 1917.54 70.26C1915.23 67.8135 1914.07 64.8913 1914.07 61.4935V15.2147C1914.07 11.8168 1915.23 8.96264 1917.54 6.65209C1919.98 4.20564 1922.97 2.98242 1926.51 2.98242H1993.58V32.7476C1993.58 34.3786 1992.97 35.8057 1991.75 37.0289C1990.52 38.1163 1989.1 38.6599 1987.47 38.6599H1976.66C1975.03 38.6599 1973.6 38.1163 1972.38 37.0289C1971.16 35.8057 1970.54 34.3786 1970.54 32.7476V11.545H1966.47V41.1064H1982.78C1986.31 41.1064 1989.37 42.3975 1991.95 44.9799C1994.53 47.5623 1995.82 50.5524 1995.82 53.9503V104.306C1995.82 107.025 1995.14 109.539 1993.79 111.85C1992.43 114.024 1990.59 115.791 1988.28 117.15C1986.11 118.51 1983.66 119.189 1980.94 119.189H1966.47V158.332H1970.54V128.159C1970.54 126.393 1971.16 124.897 1972.38 123.674C1973.6 122.451 1975.03 121.839 1976.66 121.839H1989.1C1990.73 121.839 1992.15 122.451 1993.38 123.674C1994.6 124.897 1995.21 126.393 1995.21 128.159V166.079H1925.69Z" fill="#F3F3F3"/>
<path d="M1704.95 20.5154C1704.95 17.1176 1705.76 13.9916 1707.39 11.1374C1709.02 8.28316 1711.27 6.04058 1714.12 4.40961C1717.11 2.64272 1720.37 1.75928 1723.91 1.75928H1779.56C1782.96 1.75928 1786.09 2.64272 1788.94 4.40961C1791.93 6.04058 1794.24 8.28316 1795.87 11.1374C1797.64 13.9916 1798.52 17.1176 1798.52 20.5154V119.801C1798.52 120.888 1798.86 121.84 1799.54 122.655C1800.36 123.335 1801.31 123.674 1802.4 123.674H1805.25C1806.34 123.674 1807.22 123.335 1807.9 122.655C1808.72 121.84 1809.13 120.888 1809.13 119.801V20.5154C1809.13 17.1176 1809.94 13.9916 1811.57 11.1374C1813.34 8.28316 1815.65 6.04058 1818.5 4.40961C1821.49 2.64272 1824.69 1.75928 1828.09 1.75928H1883.95C1887.21 1.75928 1890.27 2.64272 1893.12 4.40961C1896.11 6.04058 1898.42 8.28316 1900.05 11.1374C1901.82 13.9916 1902.7 17.1176 1902.7 20.5154V166.08H1868.45C1873.48 157.517 1877.69 149.974 1881.09 143.45C1884.49 136.926 1887.21 129.723 1889.25 121.84C1891.42 113.821 1892.51 104.171 1892.51 92.8898C1892.51 86.3659 1890.81 80.3177 1887.41 74.7452C1884.15 69.1728 1879.73 64.7555 1874.16 61.4936C1868.59 58.2317 1862.54 56.6007 1856.02 56.6007C1849.22 56.6007 1843.04 58.2317 1837.46 61.4936C1831.89 64.6196 1827.47 69.0368 1824.21 74.7452C1820.95 80.3177 1819.32 86.3659 1819.32 92.8898C1819.32 104.171 1820.34 113.821 1822.38 121.84C1824.55 129.723 1827.34 136.926 1830.74 143.45C1834.27 149.974 1838.55 157.517 1843.58 166.08H1764.07C1769.1 157.517 1773.31 149.974 1776.71 143.45C1780.24 136.926 1783.03 129.723 1785.07 121.84C1787.24 113.821 1788.33 104.171 1788.33 92.8898C1788.33 86.3659 1786.63 80.3177 1783.23 74.7452C1779.97 69.1728 1775.55 64.7555 1769.98 61.4936C1764.41 58.2317 1758.29 56.6007 1751.63 56.6007C1744.97 56.6007 1738.86 58.2317 1733.29 61.4936C1727.71 64.6196 1723.3 69.0368 1720.03 74.7452C1716.77 80.3177 1715.14 86.3659 1715.14 92.8898C1715.14 104.171 1716.16 113.821 1718.2 121.84C1720.37 129.723 1723.16 136.926 1726.56 143.45C1729.96 149.974 1734.24 157.517 1739.4 166.08H1704.95V20.5154Z" fill="#F3F3F3"/>
<path d="M1523.85 2.98242H1565.24L1609.28 124.897H1611.31L1655.35 2.98242H1696.74V166.079H1664.12V65.1632H1662.08L1624.97 166.079H1595.62L1558.51 65.1632H1556.47V166.079H1523.85V2.98242Z" fill="#F3F3F3"/>
<path d="M1255.01 167.099C1250.25 167.099 1246.18 166.079 1242.78 164.041C1239.38 161.866 1236.8 159.012 1235.03 155.478C1233.26 151.808 1232.38 147.867 1232.38 143.654V2.98226H1329.22V98.5979C1329.22 104.578 1330.65 110.151 1333.5 115.315C1336.49 120.344 1340.5 124.354 1345.53 127.344C1350.69 130.334 1356.33 131.829 1362.45 131.829C1368.43 131.829 1373.94 130.334 1378.96 127.344C1384.13 124.354 1388.14 120.344 1390.99 115.315C1393.98 110.151 1395.48 104.578 1395.48 98.5979V15.2146C1395.48 10.7294 1396.63 7.39947 1398.94 5.22485C1401.25 3.05021 1404.11 1.96289 1407.51 1.96289H1418.52C1420.83 1.96289 1422.86 2.50655 1424.63 3.59387C1426.4 4.68118 1428.03 6.24419 1429.52 8.2829C1431.02 10.1857 1432.79 13.0399 1434.83 16.8455L1513.72 154.663C1514.81 156.701 1515.42 158.604 1515.56 160.371C1515.69 162.002 1515.29 163.361 1514.33 164.448C1513.52 165.536 1512.09 166.079 1510.05 166.079H1422.8L1423 51.5036C1423 49.8727 1422.39 48.5135 1421.17 47.4262C1419.94 46.203 1418.52 45.5914 1416.88 45.5914H1413.62C1411.58 45.5914 1410.02 46.203 1408.93 47.4262C1407.98 48.6494 1407.51 50.0086 1407.51 51.5036V143.654C1407.51 150.857 1405.94 156.565 1402.82 160.779C1399.83 164.992 1394.19 167.099 1385.9 167.099H1255.01Z" fill="#F3F3F3"/>
<path d="M1151.03 167.915C1128.74 167.915 1110.66 163.022 1096.8 153.236C1083.07 143.45 1076.27 128.567 1076.41 108.588H1108.83C1108.69 117.966 1112.63 125.305 1120.65 130.606C1128.67 135.907 1138.79 138.557 1151.03 138.557C1176.31 138.557 1188.95 132.373 1188.95 120.005C1188.95 115.655 1187.66 112.122 1185.07 109.403C1182.49 106.685 1178.41 104.511 1172.84 102.88C1167.4 101.113 1159.79 99.6176 1150.01 98.3944C1127.99 95.5402 1110.93 90.2395 1098.84 82.4924C1086.88 74.7453 1080.9 63.6003 1080.9 49.0575C1080.9 38.728 1083.89 29.9615 1089.87 22.7581C1095.85 15.5546 1104.07 10.1181 1114.53 6.44838C1125.14 2.77869 1137.3 0.943848 1151.03 0.943848C1167.74 0.943848 1181.2 3.73008 1191.39 9.30256C1201.59 14.7391 1208.93 21.5349 1213.41 29.6897C1217.9 37.7087 1220.48 45.9315 1221.16 54.3581H1188.34C1187.66 46.7469 1184.05 40.8347 1177.53 36.6213C1171.14 32.2721 1162.31 30.0974 1151.03 30.0974C1139.2 30.0974 1130.03 31.7284 1123.5 34.9904C1117.12 38.1164 1113.92 42.8054 1113.92 49.0575C1113.92 53.1349 1115.21 56.5328 1117.8 59.2511C1120.51 61.8334 1124.66 64.0081 1130.23 65.775C1135.94 67.4059 1143.69 68.9689 1153.47 70.464C1175.76 73.7259 1192.62 78.7548 1204.03 85.5505C1215.59 92.3462 1221.36 102.676 1221.36 116.539C1221.36 125.373 1218.71 133.732 1213.41 141.615C1208.11 149.498 1200.16 155.886 1189.56 160.779C1178.96 165.536 1166.11 167.915 1151.03 167.915Z" fill="#F3F3F3"/>
<path d="M3078.25 2.98242H3164.08C3173.73 2.98242 3182.23 5.08908 3189.57 9.30241C3197.04 13.3798 3202.82 19.1562 3206.9 26.6315C3210.97 34.1068 3213.01 42.6694 3213.01 52.3193C3213.01 65.7748 3209.62 77.0557 3202.82 86.1619C3196.16 95.2682 3187.05 101.045 3175.5 103.491L3176.11 94.3168L3226.06 166.079H3185.29L3142.68 104.714H3110.87V166.079H3078.25V2.98242ZM3159.6 77.3955C3166.39 77.3955 3172.1 75.1529 3176.72 70.6677C3181.34 66.1825 3183.66 60.678 3183.66 54.1541C3183.66 47.4943 3181.48 42.1257 3177.13 38.0483C3172.92 33.835 3167.75 31.7283 3161.64 31.7283H3110.87V77.3955H3159.6Z" fill="#F3F3F3"/>
<path d="M3002.05 166.079C2999.06 166.079 2996.2 165.332 2993.48 163.837C2990.9 162.342 2988.86 160.303 2987.37 157.721C2985.87 155.003 2985.12 152.148 2985.12 149.158V94.9284C2985.12 91.9383 2985.87 89.152 2987.37 86.5697C2988.86 83.8514 2990.9 81.7447 2993.48 80.2497C2996.2 78.7546 2999.06 78.0071 3002.05 78.0071H3056.89C3057.3 78.0071 3057.57 77.9391 3057.7 77.8032C3057.98 77.5314 3058.11 77.1916 3058.11 76.7838V74.949C3058.11 74.6772 3057.98 74.4733 3057.7 74.3374C3057.57 74.0656 3057.3 73.9296 3056.89 73.9296H3002.86C2999.33 73.9296 2996.34 72.7064 2993.89 70.26C2991.58 67.8135 2990.43 64.8913 2990.43 61.4935V15.2147C2990.43 11.8168 2991.58 8.96264 2993.89 6.65209C2996.34 4.20564 2999.33 2.98242 3002.86 2.98242H3069.94V32.7476C3069.94 34.3786 3069.32 35.8057 3068.1 37.0289C3066.88 38.1163 3065.45 38.6599 3063.82 38.6599H3053.01C3051.38 38.6599 3049.96 38.1163 3048.73 37.0289C3047.51 35.8057 3046.9 34.3786 3046.9 32.7476V11.545H3042.82V41.1064H3059.13C3062.66 41.1064 3065.72 42.3975 3068.3 44.9799C3070.89 47.5623 3072.18 50.5524 3072.18 53.9503V104.306C3072.18 107.025 3071.5 109.539 3070.14 111.85C3068.78 114.024 3066.95 115.791 3064.63 117.15C3062.46 118.51 3060.01 119.189 3057.3 119.189H3042.82V158.332H3046.9V128.159C3046.9 126.393 3047.51 124.897 3048.73 123.674C3049.96 122.451 3051.38 121.839 3053.01 121.839H3065.45C3067.08 121.839 3068.51 122.451 3069.73 123.674C3070.95 124.897 3071.57 126.393 3071.57 128.159V166.079H3002.05Z" fill="#F3F3F3"/>
<path d="M2781.3 20.5154C2781.3 17.1176 2782.12 13.9916 2783.75 11.1374C2785.38 8.28316 2787.62 6.04058 2790.48 4.40961C2793.47 2.64272 2796.73 1.75928 2800.26 1.75928H2855.92C2859.32 1.75928 2862.44 2.64272 2865.3 4.40961C2868.29 6.04058 2870.6 8.28316 2872.23 11.1374C2873.99 13.9916 2874.88 17.1176 2874.88 20.5154V119.801C2874.88 120.888 2875.22 121.84 2875.9 122.655C2876.71 123.335 2877.66 123.674 2878.75 123.674H2881.61C2882.69 123.674 2883.58 123.335 2884.26 122.655C2885.07 121.84 2885.48 120.888 2885.48 119.801V20.5154C2885.48 17.1176 2886.29 13.9916 2887.93 11.1374C2889.69 8.28316 2892 6.04058 2894.86 4.40961C2897.85 2.64272 2901.04 1.75928 2904.44 1.75928H2960.3C2963.56 1.75928 2966.62 2.64272 2969.47 4.40961C2972.46 6.04058 2974.77 8.28316 2976.41 11.1374C2978.17 13.9916 2979.06 17.1176 2979.06 20.5154V166.08H2944.81C2949.83 157.517 2954.05 149.974 2957.45 143.45C2960.84 136.926 2963.56 129.723 2965.6 121.84C2967.78 113.821 2968.86 104.171 2968.86 92.8898C2968.86 86.3659 2967.16 80.3177 2963.77 74.7452C2960.5 69.1728 2956.09 64.7555 2950.51 61.4936C2944.94 58.2317 2938.89 56.6007 2932.37 56.6007C2925.57 56.6007 2919.39 58.2317 2913.82 61.4936C2908.24 64.6196 2903.83 69.0368 2900.57 74.7452C2897.3 80.3177 2895.67 86.3659 2895.67 92.8898C2895.67 104.171 2896.69 113.821 2898.73 121.84C2900.91 129.723 2903.69 136.926 2907.09 143.45C2910.62 149.974 2914.9 157.517 2919.93 166.08H2840.42C2845.45 157.517 2849.67 149.974 2853.06 143.45C2856.6 136.926 2859.38 129.723 2861.42 121.84C2863.6 113.821 2864.68 104.171 2864.68 92.8898C2864.68 86.3659 2862.99 80.3177 2859.59 74.7452C2856.33 69.1728 2851.91 64.7555 2846.34 61.4936C2840.76 58.2317 2834.65 56.6007 2827.99 56.6007C2821.33 56.6007 2815.21 58.2317 2809.64 61.4936C2804.07 64.6196 2799.65 69.0368 2796.39 74.7452C2793.13 80.3177 2791.49 86.3659 2791.49 92.8898C2791.49 104.171 2792.51 113.821 2794.55 121.84C2796.73 129.723 2799.51 136.926 2802.91 143.45C2806.31 149.974 2810.59 157.517 2815.76 166.08H2781.3V20.5154Z" fill="#F3F3F3"/>
<path d="M2600.21 2.98242H2641.59L2685.63 124.897H2687.67L2731.7 2.98242H2773.09V166.079H2740.47V65.1632H2738.43L2701.33 166.079H2671.97L2634.87 65.1632H2632.83V166.079H2600.21V2.98242Z" fill="#F3F3F3"/>
<path d="M2331.36 167.099C2326.61 167.099 2322.53 166.079 2319.13 164.041C2315.73 161.866 2313.15 159.012 2311.38 155.478C2309.62 151.808 2308.73 147.867 2308.73 143.654V2.98226H2405.57V98.5979C2405.57 104.578 2407 110.151 2409.85 115.315C2412.84 120.344 2416.85 124.354 2421.88 127.344C2427.05 130.334 2432.69 131.829 2438.8 131.829C2444.78 131.829 2450.29 130.334 2455.32 127.344C2460.48 124.354 2464.49 120.344 2467.35 115.315C2470.34 110.151 2471.83 104.578 2471.83 98.5979V15.2146C2471.83 10.7294 2472.99 7.39947 2475.3 5.22485C2477.61 3.05021 2480.46 1.96289 2483.86 1.96289H2494.87C2497.18 1.96289 2499.22 2.50655 2500.99 3.59387C2502.75 4.68118 2504.38 6.24419 2505.88 8.2829C2507.37 10.1857 2509.14 13.0399 2511.18 16.8455L2590.08 154.663C2591.16 156.701 2591.78 158.604 2591.91 160.371C2592.05 162.002 2591.64 163.361 2590.69 164.448C2589.87 165.536 2588.45 166.079 2586.41 166.079H2499.15L2499.35 51.5036C2499.35 49.8727 2498.74 48.5135 2497.52 47.4262C2496.3 46.203 2494.87 45.5914 2493.24 45.5914H2489.98C2487.94 45.5914 2486.37 46.203 2485.29 47.4262C2484.34 48.6494 2483.86 50.0086 2483.86 51.5036V143.654C2483.86 150.857 2482.3 156.565 2479.17 160.779C2476.18 164.992 2470.54 167.099 2462.25 167.099H2331.36Z" fill="#F3F3F3"/>
<path d="M2227.38 167.915C2205.09 167.915 2187.01 163.022 2173.15 153.236C2159.42 143.45 2152.63 128.567 2152.76 108.588H2185.18C2185.04 117.966 2188.98 125.305 2197 130.606C2205.02 135.907 2215.15 138.557 2227.38 138.557C2252.66 138.557 2265.3 132.373 2265.3 120.005C2265.3 115.655 2264.01 112.122 2261.43 109.403C2258.84 106.685 2254.77 104.511 2249.19 102.88C2243.76 101.113 2236.15 99.6176 2226.36 98.3944C2204.34 95.5402 2187.29 90.2395 2175.19 82.4924C2163.23 74.7453 2157.25 63.6003 2157.25 49.0575C2157.25 38.728 2160.24 29.9615 2166.22 22.7581C2172.2 15.5546 2180.42 10.1181 2190.89 6.44838C2201.49 2.77869 2213.65 0.943848 2227.38 0.943848C2244.1 0.943848 2257.55 3.73008 2267.75 9.30256C2277.94 14.7391 2285.28 21.5349 2289.77 29.6897C2294.25 37.7087 2296.83 45.9315 2297.51 54.3581H2264.69C2264.01 46.7469 2260.41 40.8347 2253.88 36.6213C2247.5 32.2721 2238.66 30.0974 2227.38 30.0974C2215.56 30.0974 2206.38 31.7284 2199.86 34.9904C2193.47 38.1164 2190.28 42.8054 2190.28 49.0575C2190.28 53.1349 2191.57 56.5328 2194.15 59.2511C2196.87 61.8334 2201.01 64.0081 2206.59 65.775C2212.29 67.4059 2220.04 68.9689 2229.83 70.464C2252.12 73.7259 2268.97 78.7548 2280.39 85.5505C2291.94 92.3462 2297.72 102.676 2297.72 116.539C2297.72 125.373 2295.07 133.732 2289.77 141.615C2284.46 149.498 2276.51 155.886 2265.91 160.779C2255.31 165.536 2242.47 167.915 2227.38 167.915Z" fill="#F3F3F3"/>
<path d="M4154.61 2.98242H4240.44C4250.09 2.98242 4258.58 5.08908 4265.92 9.30241C4273.39 13.3798 4279.17 19.1562 4283.25 26.6315C4287.33 34.1068 4289.36 42.6694 4289.36 52.3193C4289.36 65.7748 4285.97 77.0557 4279.17 86.1619C4272.51 95.2682 4263.4 101.045 4251.85 103.491L4252.46 94.3168L4302.41 166.079H4261.64L4219.03 104.714H4187.22V166.079H4154.61V2.98242ZM4235.95 77.3955C4242.75 77.3955 4248.45 75.1529 4253.08 70.6677C4257.7 66.1825 4260.01 60.678 4260.01 54.1541C4260.01 47.4943 4257.83 42.1257 4253.48 38.0483C4249.27 33.835 4244.11 31.7283 4237.99 31.7283H4187.22V77.3955H4235.95Z" fill="#F3F3F3"/>
<path d="M4078.4 166.079C4075.41 166.079 4072.55 165.332 4069.84 163.837C4067.25 162.342 4065.21 160.303 4063.72 157.721C4062.22 155.003 4061.48 152.148 4061.48 149.158V94.9284C4061.48 91.9383 4062.22 89.152 4063.72 86.5697C4065.21 83.8514 4067.25 81.7447 4069.84 80.2497C4072.55 78.7546 4075.41 78.0071 4078.4 78.0071H4133.24C4133.65 78.0071 4133.92 77.9391 4134.05 77.8032C4134.33 77.5314 4134.46 77.1916 4134.46 76.7838V74.949C4134.46 74.6772 4134.33 74.4733 4134.05 74.3374C4133.92 74.0656 4133.65 73.9296 4133.24 73.9296H4079.21C4075.68 73.9296 4072.69 72.7064 4070.24 70.26C4067.93 67.8135 4066.78 64.8913 4066.78 61.4935V15.2147C4066.78 11.8168 4067.93 8.96264 4070.24 6.65209C4072.69 4.20564 4075.68 2.98242 4079.21 2.98242H4146.29V32.7476C4146.29 34.3786 4145.68 35.8057 4144.45 37.0289C4143.23 38.1163 4141.8 38.6599 4140.17 38.6599H4129.37C4127.73 38.6599 4126.31 38.1163 4125.08 37.0289C4123.86 35.8057 4123.25 34.3786 4123.25 32.7476V11.545H4119.17V41.1064H4135.48C4139.02 41.1064 4142.07 42.3975 4144.66 44.9799C4147.24 47.5623 4148.53 50.5524 4148.53 53.9503V104.306C4148.53 107.025 4147.85 109.539 4146.49 111.85C4145.13 114.024 4143.3 115.791 4140.99 117.15C4138.81 118.51 4136.37 119.189 4133.65 119.189H4119.17V158.332H4123.25V128.159C4123.25 126.393 4123.86 124.897 4125.08 123.674C4126.31 122.451 4127.73 121.839 4129.37 121.839H4141.8C4143.43 121.839 4144.86 122.451 4146.08 123.674C4147.31 124.897 4147.92 126.393 4147.92 128.159V166.079H4078.4Z" fill="#F3F3F3"/>
<path d="M3857.65 20.5154C3857.65 17.1176 3858.47 13.9916 3860.1 11.1374C3861.73 8.28316 3863.97 6.04058 3866.83 4.40961C3869.82 2.64272 3873.08 1.75928 3876.61 1.75928H3932.27C3935.67 1.75928 3938.79 2.64272 3941.65 4.40961C3944.64 6.04058 3946.95 8.28316 3948.58 11.1374C3950.35 13.9916 3951.23 17.1176 3951.23 20.5154V119.801C3951.23 120.888 3951.57 121.84 3952.25 122.655C3953.06 123.335 3954.02 123.674 3955.1 123.674H3957.96C3959.04 123.674 3959.93 123.335 3960.61 122.655C3961.42 121.84 3961.83 120.888 3961.83 119.801V20.5154C3961.83 17.1176 3962.65 13.9916 3964.28 11.1374C3966.04 8.28316 3968.35 6.04058 3971.21 4.40961C3974.2 2.64272 3977.39 1.75928 3980.79 1.75928H4036.65C4039.91 1.75928 4042.97 2.64272 4045.83 4.40961C4048.82 6.04058 4051.13 8.28316 4052.76 11.1374C4054.52 13.9916 4055.41 17.1176 4055.41 20.5154V166.08H4021.16C4026.19 157.517 4030.4 149.974 4033.8 143.45C4037.2 136.926 4039.91 129.723 4041.95 121.84C4044.13 113.821 4045.21 104.171 4045.21 92.8898C4045.21 86.3659 4043.52 80.3177 4040.12 74.7452C4036.86 69.1728 4032.44 64.7555 4026.87 61.4936C4021.29 58.2317 4015.24 56.6007 4008.72 56.6007C4001.93 56.6007 3995.74 58.2317 3990.17 61.4936C3984.6 64.6196 3980.18 69.0368 3976.92 74.7452C3973.66 80.3177 3972.02 86.3659 3972.02 92.8898C3972.02 104.171 3973.04 113.821 3975.08 121.84C3977.26 129.723 3980.04 136.926 3983.44 143.45C3986.97 149.974 3991.26 157.517 3996.28 166.08H3916.78C3921.8 157.517 3926.02 149.974 3929.42 143.45C3932.95 136.926 3935.74 129.723 3937.77 121.84C3939.95 113.821 3941.04 104.171 3941.04 92.8898C3941.04 86.3659 3939.34 80.3177 3935.94 74.7452C3932.68 69.1728 3928.26 64.7555 3922.69 61.4936C3917.11 58.2317 3911 56.6007 3904.34 56.6007C3897.68 56.6007 3891.56 58.2317 3885.99 61.4936C3880.42 64.6196 3876 69.0368 3872.74 74.7452C3869.48 80.3177 3867.85 86.3659 3867.85 92.8898C3867.85 104.171 3868.87 113.821 3870.9 121.84C3873.08 129.723 3875.86 136.926 3879.26 143.45C3882.66 149.974 3886.94 157.517 3892.11 166.08H3857.65V20.5154Z" fill="#F3F3F3"/>
<path d="M3676.56 2.98242H3717.94L3761.98 124.897H3764.02L3808.06 2.98242H3849.44V166.079H3816.82V65.1632H3814.78L3777.68 166.079H3748.32L3711.22 65.1632H3709.18V166.079H3676.56V2.98242Z" fill="#F3F3F3"/>
<path d="M3407.72 167.099C3402.96 167.099 3398.88 166.079 3395.48 164.041C3392.09 161.866 3389.5 159.012 3387.74 155.478C3385.97 151.808 3385.09 147.867 3385.09 143.654V2.98226H3481.92V98.5979C3481.92 104.578 3483.35 110.151 3486.21 115.315C3489.2 120.344 3493.21 124.354 3498.23 127.344C3503.4 130.334 3509.04 131.829 3515.16 131.829C3521.14 131.829 3526.64 130.334 3531.67 127.344C3536.83 124.354 3540.84 120.344 3543.7 115.315C3546.69 110.151 3548.18 104.578 3548.18 98.5979V15.2146C3548.18 10.7294 3549.34 7.39947 3551.65 5.22485C3553.96 3.05021 3556.81 1.96289 3560.21 1.96289H3571.22C3573.53 1.96289 3575.57 2.50655 3577.34 3.59387C3579.1 4.68118 3580.73 6.24419 3582.23 8.2829C3583.72 10.1857 3585.49 13.0399 3587.53 16.8455L3666.43 154.663C3667.52 156.701 3668.13 158.604 3668.26 160.371C3668.4 162.002 3667.99 163.361 3667.04 164.448C3666.22 165.536 3664.8 166.079 3662.76 166.079H3575.5L3575.71 51.5036C3575.71 49.8727 3575.09 48.5135 3573.87 47.4262C3572.65 46.203 3571.22 45.5914 3569.59 45.5914H3566.33C3564.29 45.5914 3562.73 46.203 3561.64 47.4262C3560.69 48.6494 3560.21 50.0086 3560.21 51.5036V143.654C3560.21 150.857 3558.65 156.565 3555.52 160.779C3552.53 164.992 3546.89 167.099 3538.6 167.099H3407.72Z" fill="#F3F3F3"/>
<path d="M3303.73 167.915C3281.44 167.915 3263.37 163.022 3249.5 153.236C3235.78 143.45 3228.98 128.567 3229.12 108.588H3261.53C3261.39 117.966 3265.34 125.305 3273.36 130.606C3281.37 135.907 3291.5 138.557 3303.73 138.557C3329.01 138.557 3341.65 132.373 3341.65 120.005C3341.65 115.655 3340.36 112.122 3337.78 109.403C3335.2 106.685 3331.12 104.511 3325.55 102.88C3320.11 101.113 3312.5 99.6176 3302.71 98.3944C3280.69 95.5402 3263.64 90.2395 3251.54 82.4924C3239.58 74.7453 3233.6 63.6003 3233.6 49.0575C3233.6 38.728 3236.59 29.9615 3242.57 22.7581C3248.55 15.5546 3256.77 10.1181 3267.24 6.44838C3277.84 2.77869 3290 0.943848 3303.73 0.943848C3320.45 0.943848 3333.91 3.73008 3344.1 9.30256C3354.29 14.7391 3361.63 21.5349 3366.12 29.6897C3370.6 37.7087 3373.18 45.9315 3373.86 54.3581H3341.04C3340.36 46.7469 3336.76 40.8347 3330.24 36.6213C3323.85 32.2721 3315.01 30.0974 3303.73 30.0974C3291.91 30.0974 3282.73 31.7284 3276.21 34.9904C3269.82 38.1164 3266.63 42.8054 3266.63 49.0575C3266.63 53.1349 3267.92 56.5328 3270.5 59.2511C3273.22 61.8334 3277.36 64.0081 3282.94 65.775C3288.65 67.4059 3296.39 68.9689 3306.18 70.464C3328.47 73.7259 3345.32 78.7548 3356.74 85.5505C3368.29 92.3462 3374.07 102.676 3374.07 116.539C3374.07 125.373 3371.42 133.732 3366.12 141.615C3360.82 149.498 3352.87 155.886 3342.26 160.779C3331.66 165.536 3318.82 167.915 3303.73 167.915Z" fill="#F3F3F3"/>
</svg>
