<svg width="390" height="122" viewBox="0 0 390 122" fill="none" xmlns="http://www.w3.org/2000/svg">
<path d="M282.844 1.19247H309.825L364.084 83.3272H365.575V1.19247H389.425V120.444H361.55L308.185 41.589H306.694V120.444H282.844V1.19247Z" fill="#F3F3F3"/>
<path d="M253.061 1.19247H276.911V120.444H253.061V1.19247Z" fill="#F3F3F3"/>
<path d="M126.22 121.19C123.437 121.19 120.903 120.544 118.617 119.252C116.332 117.861 114.493 116.072 113.102 113.885C111.81 111.6 111.164 109.066 111.164 106.283V85.116C111.164 78.5571 112.754 72.5448 115.934 67.0791C119.114 61.514 123.437 57.1415 128.903 53.9614C134.468 50.7814 140.58 49.1913 147.238 49.1913H187.783C190.963 49.1913 193.597 48.297 195.684 46.5082C197.771 44.7194 199.112 42.5331 199.709 39.9493C200.404 37.2662 200.404 34.7817 199.709 32.4961C199.013 30.2104 197.721 28.4216 195.833 27.1298C194.044 25.7385 191.908 24.8938 189.423 24.5957C186.939 24.2975 184.405 24.5957 181.821 25.49L148.281 36.6699V1.19247H186.74C189.125 1.19247 191.162 1.68936 192.852 2.68312C194.64 3.67689 196.081 5.26691 197.175 7.4532L247.409 109.712C248.403 111.799 248.751 113.687 248.453 115.376C248.155 116.966 247.409 118.208 246.217 119.103C245.024 119.997 243.732 120.444 242.341 120.444H200.156C198.069 120.444 196.33 119.749 194.938 118.357C193.647 116.867 193.448 114.979 194.342 112.693L199.858 99.2771L201.796 94.5071C204.081 88.7432 205.721 84.1222 206.715 80.644C207.808 77.0665 208.354 73.8367 208.354 70.9548C208.354 67.576 207.261 64.7438 205.075 62.4581C202.988 60.1725 200.156 59.0296 196.578 59.0296C193.299 59.0296 190.467 60.2221 188.082 62.6072C185.796 64.8928 184.653 67.6754 184.653 70.9548V106.283C184.653 108.966 183.957 111.451 182.566 113.736C181.274 116.022 179.485 117.861 177.2 119.252C174.914 120.544 172.43 121.19 169.747 121.19H126.22ZM148.281 105.985C152.157 105.985 155.685 105.091 158.865 103.302C162.045 101.414 164.529 98.8796 166.318 95.6996C168.206 92.5195 169.15 88.942 169.15 84.9669C169.15 81.0912 168.206 77.5634 166.318 74.3833C164.529 71.2033 162.045 68.7188 158.865 66.9301C155.685 65.0419 152.157 64.0978 148.281 64.0978C144.406 64.0978 140.828 65.0419 137.549 66.9301C134.368 68.7188 131.834 71.2033 129.946 74.3833C128.157 77.5634 127.263 81.0912 127.263 84.9669C127.263 88.942 128.157 92.5195 129.946 95.6996C131.834 98.8796 134.368 101.414 137.549 103.302C140.729 105.091 144.306 105.985 148.281 105.985Z" fill="#F3F3F3"/>
<path d="M4.55273 1.19244H28.4031V49.7876H82.8118V1.04337H106.662V120.295H82.8118V72.5945H28.4031V120.444H4.55273V1.19244Z" fill="#F3F3F3"/>
</svg>
