<svg width="3227" height="168" viewBox="0 0 3227 168" fill="none" xmlns="http://www.w3.org/2000/svg">
<path d="M925.547 2.98218H1011.38C1021.03 2.98218 1029.52 5.08883 1036.86 9.30217C1044.34 13.3796 1050.11 19.156 1054.19 26.6313C1058.27 34.1065 1060.31 42.6691 1060.31 52.319C1060.31 65.7746 1056.91 77.0554 1050.11 86.1617C1043.45 95.2679 1034.35 101.044 1022.79 103.491L1023.41 94.3165L1073.35 166.079H1032.58L989.97 104.714H958.166V166.079H925.547V2.98218ZM1006.89 77.3952C1013.69 77.3952 1019.4 75.1526 1024.02 70.6675C1028.64 66.1823 1030.95 60.6778 1030.95 54.1539C1030.95 47.4941 1028.77 42.1255 1024.42 38.0481C1020.21 33.8347 1015.05 31.728 1008.93 31.728H958.166V77.3952H1006.89Z" fill="#F3F3F3"/>
<path d="M849.339 166.079C846.349 166.079 843.495 165.332 840.777 163.837C838.194 162.342 836.156 160.303 834.661 157.721C833.166 155.002 832.418 152.148 832.418 149.158V94.9282C832.418 91.938 833.166 89.1518 834.661 86.5694C836.156 83.8511 838.194 81.7445 840.777 80.2494C843.495 78.7544 846.349 78.0068 849.339 78.0068H904.181C904.588 78.0068 904.86 77.9389 904.996 77.8029C905.268 77.5311 905.404 77.1913 905.404 76.7836V74.9488C905.404 74.6769 905.268 74.4731 904.996 74.3372C904.86 74.0653 904.588 73.9294 904.181 73.9294H850.155C846.621 73.9294 843.631 72.7062 841.184 70.2597C838.874 67.8133 837.719 64.8911 837.719 61.4933V15.2145C837.719 11.8166 838.874 8.96239 841.184 6.65185C843.631 4.2054 846.621 2.98218 850.155 2.98218H917.228V32.7474C917.228 34.3784 916.617 35.8055 915.394 37.0287C914.17 38.116 912.743 38.6597 911.112 38.6597H900.307C898.676 38.6597 897.249 38.116 896.026 37.0287C894.803 35.8055 894.191 34.3784 894.191 32.7474V11.5448H890.114V41.1061H906.423C909.957 41.1061 913.015 42.3973 915.597 44.9797C918.18 47.562 919.471 50.5522 919.471 53.95V104.306C919.471 107.025 918.791 109.539 917.432 111.849C916.073 114.024 914.238 115.791 911.928 117.15C909.753 118.509 907.307 119.189 904.588 119.189H890.114V158.332H894.191V128.159C894.191 126.392 894.803 124.897 896.026 123.674C897.249 122.451 898.676 121.839 900.307 121.839H912.743C914.374 121.839 915.801 122.451 917.025 123.674C918.248 124.897 918.859 126.392 918.859 128.159V166.079H849.339Z" fill="#F3F3F3"/>
<path d="M628.594 20.5152C628.594 17.1173 629.409 13.9913 631.04 11.1371C632.671 8.28292 634.914 6.04034 637.768 4.40936C640.758 2.64248 644.02 1.75903 647.554 1.75903H703.211C706.609 1.75903 709.735 2.64248 712.589 4.40936C715.579 6.04034 717.889 8.28292 719.52 11.1371C721.287 13.9913 722.171 17.1173 722.171 20.5152V119.801C722.171 120.888 722.511 121.839 723.19 122.655C724.006 123.334 724.957 123.674 726.044 123.674H728.899C729.986 123.674 730.869 123.334 731.549 122.655C732.364 121.839 732.772 120.888 732.772 119.801V20.5152C732.772 17.1173 733.588 13.9913 735.219 11.1371C736.985 8.28292 739.296 6.04034 742.15 4.40936C745.14 2.64248 748.334 1.75903 751.732 1.75903H807.593C810.855 1.75903 813.913 2.64248 816.767 4.40936C819.757 6.04034 822.068 8.28292 823.699 11.1371C825.466 13.9913 826.349 17.1173 826.349 20.5152V166.079H792.099C797.127 157.517 801.341 149.974 804.739 143.45C808.137 136.926 810.855 129.722 812.893 121.839C815.068 113.82 816.155 104.17 816.155 92.8895C816.155 86.3657 814.457 80.3175 811.059 74.745C807.797 69.1725 803.379 64.7553 797.807 61.4934C792.234 58.2314 786.186 56.6004 779.662 56.6004C772.867 56.6004 766.683 58.2314 761.11 61.4934C755.538 64.6194 751.12 69.0366 747.859 74.745C744.597 80.3175 742.966 86.3657 742.966 92.8895C742.966 104.17 743.985 113.82 746.024 121.839C748.198 129.722 750.985 136.926 754.382 143.45C757.916 149.974 762.197 157.517 767.226 166.079H687.716C692.745 157.517 696.959 149.974 700.356 143.45C703.89 136.926 706.677 129.722 708.715 121.839C710.89 113.82 711.977 104.17 711.977 92.8895C711.977 86.3657 710.278 80.3175 706.88 74.745C703.618 69.1725 699.201 64.7553 693.629 61.4934C688.056 58.2314 681.94 56.6004 675.28 56.6004C668.62 56.6004 662.504 58.2314 656.932 61.4934C651.359 64.6194 646.942 69.0366 643.68 74.745C640.418 80.3175 638.787 86.3657 638.787 92.8895C638.787 104.17 639.807 113.82 641.845 121.839C644.02 129.722 646.806 136.926 650.204 143.45C653.602 149.974 657.883 157.517 663.048 166.079H628.594V20.5152Z" fill="#F3F3F3"/>
<path d="M447.5 2.98218H488.886L532.922 124.897H534.961L578.997 2.98218H620.383V166.079H587.764V65.1629H585.725L548.62 166.079H519.263L482.158 65.1629H480.119V166.079H447.5V2.98218Z" fill="#F3F3F3"/>
<path d="M178.657 167.099C173.9 167.099 169.822 166.079 166.424 164.041C163.026 161.866 160.444 159.012 158.677 155.478C156.91 151.808 156.027 147.867 156.027 143.654V2.98226H252.866V98.5979C252.866 104.578 254.293 110.151 257.147 115.315C260.137 120.344 264.147 124.354 269.175 127.344C274.34 130.334 279.981 131.829 286.097 131.829C292.077 131.829 297.582 130.334 302.61 127.344C307.775 124.354 311.785 120.344 314.639 115.315C317.629 110.151 319.124 104.578 319.124 98.5979V15.2146C319.124 10.7294 320.279 7.39947 322.59 5.22485C324.9 3.05021 327.755 1.96289 331.152 1.96289H342.161C344.472 1.96289 346.511 2.50655 348.278 3.59387C350.044 4.68118 351.675 6.24419 353.17 8.2829C354.666 10.1857 356.432 13.0399 358.471 16.8455L437.369 154.663C438.457 156.701 439.068 158.604 439.204 160.371C439.34 162.002 438.932 163.361 437.981 164.448C437.165 165.536 435.738 166.079 433.7 166.079H346.443L346.647 51.5036C346.647 49.8727 346.035 48.5135 344.812 47.4262C343.589 46.203 342.161 45.5914 340.53 45.5914H337.269C335.23 45.5914 333.667 46.203 332.579 47.4262C331.628 48.6494 331.152 50.0086 331.152 51.5036V143.654C331.152 150.857 329.589 156.565 326.463 160.779C323.473 164.992 317.833 167.099 309.542 167.099H178.657Z" fill="#F3F3F3"/>
<path d="M74.6741 167.914C52.3842 167.914 34.3076 163.021 20.4443 153.236C6.71697 143.45 -0.0787395 128.567 0.0571745 108.588H32.4727C32.3368 117.966 36.2783 125.305 44.2973 130.606C52.3162 135.906 62.4418 138.557 74.6741 138.557C99.9541 138.557 112.594 132.373 112.594 120.004C112.594 115.655 111.303 112.121 108.721 109.403C106.138 106.685 102.061 104.51 96.4883 102.879C91.0518 101.112 83.4406 99.6174 73.6547 98.3941C51.6366 95.5399 34.5794 90.2393 22.483 82.4921C10.5226 74.745 4.54235 63.6001 4.54235 49.0573C4.54235 38.7278 7.53246 29.9613 13.5127 22.7578C19.4929 15.5544 27.7157 10.1178 38.1811 6.44813C48.7824 2.77845 60.9468 0.943604 74.6741 0.943604C91.3915 0.943604 104.847 3.72983 115.041 9.30232C125.234 14.7389 132.574 21.5346 137.059 29.6895C141.544 37.7084 144.126 45.9312 144.806 54.3579H111.983C111.303 46.7467 107.701 40.8344 101.177 36.6211C94.7894 32.2718 85.955 30.0972 74.6741 30.0972C62.8496 30.0972 53.6753 31.7282 47.1515 34.9901C40.7635 38.1162 37.5695 42.8052 37.5695 49.0573C37.5695 53.1347 38.8607 56.5325 41.4431 59.2508C44.1613 61.8332 48.3067 64.0078 53.8792 65.7747C59.5876 67.4057 67.3347 68.9687 77.1206 70.4637C99.4105 73.7257 116.264 78.7545 127.681 85.5502C139.233 92.3459 145.01 102.675 145.01 116.539C145.01 125.373 142.359 133.732 137.059 141.615C131.758 149.498 123.807 155.886 113.206 160.779C102.604 165.536 89.7606 167.914 74.6741 167.914Z" fill="#F3F3F3"/>
<path d="M2001.9 2.98218H2087.73C2097.38 2.98218 2105.87 5.08883 2113.21 9.30217C2120.69 13.3796 2126.47 19.156 2130.54 26.6313C2134.62 34.1065 2136.66 42.6691 2136.66 52.319C2136.66 65.7746 2133.26 77.0554 2126.47 86.1617C2119.81 95.2679 2110.7 101.044 2099.15 103.491L2099.76 94.3165L2149.71 166.079H2108.93L2066.32 104.714H2034.52V166.079H2001.9V2.98218ZM2083.25 77.3952C2090.04 77.3952 2095.75 75.1526 2100.37 70.6675C2104.99 66.1823 2107.3 60.6778 2107.3 54.1539C2107.3 47.4941 2105.13 42.1255 2100.78 38.0481C2096.56 33.8347 2091.4 31.728 2085.28 31.728H2034.52V77.3952H2083.25Z" fill="#F3F3F3"/>
<path d="M1925.69 166.079C1922.7 166.079 1919.85 165.332 1917.13 163.837C1914.55 162.342 1912.51 160.303 1911.01 157.721C1909.52 155.002 1908.77 152.148 1908.77 149.158V94.9282C1908.77 91.938 1909.52 89.1518 1911.01 86.5694C1912.51 83.8511 1914.55 81.7445 1917.13 80.2494C1919.85 78.7544 1922.7 78.0068 1925.69 78.0068H1980.53C1980.94 78.0068 1981.21 77.9389 1981.35 77.8029C1981.62 77.5311 1981.76 77.1913 1981.76 76.7836V74.9488C1981.76 74.6769 1981.62 74.4731 1981.35 74.3372C1981.21 74.0653 1980.94 73.9294 1980.53 73.9294H1926.51C1922.97 73.9294 1919.98 72.7062 1917.54 70.2597C1915.23 67.8133 1914.07 64.8911 1914.07 61.4933V15.2145C1914.07 11.8166 1915.23 8.96239 1917.54 6.65185C1919.98 4.2054 1922.97 2.98218 1926.51 2.98218H1993.58V32.7474C1993.58 34.3784 1992.97 35.8055 1991.75 37.0287C1990.52 38.116 1989.1 38.6597 1987.47 38.6597H1976.66C1975.03 38.6597 1973.6 38.116 1972.38 37.0287C1971.16 35.8055 1970.54 34.3784 1970.54 32.7474V11.5448H1966.47V41.1061H1982.78C1986.31 41.1061 1989.37 42.3973 1991.95 44.9797C1994.53 47.562 1995.82 50.5522 1995.82 53.95V104.306C1995.82 107.025 1995.14 109.539 1993.79 111.849C1992.43 114.024 1990.59 115.791 1988.28 117.15C1986.11 118.509 1983.66 119.189 1980.94 119.189H1966.47V158.332H1970.54V128.159C1970.54 126.392 1971.16 124.897 1972.38 123.674C1973.6 122.451 1975.03 121.839 1976.66 121.839H1989.1C1990.73 121.839 1992.15 122.451 1993.38 123.674C1994.6 124.897 1995.21 126.392 1995.21 128.159V166.079H1925.69Z" fill="#F3F3F3"/>
<path d="M1704.95 20.5152C1704.95 17.1173 1705.76 13.9913 1707.39 11.1371C1709.02 8.28292 1711.27 6.04034 1714.12 4.40936C1717.11 2.64248 1720.37 1.75903 1723.91 1.75903H1779.56C1782.96 1.75903 1786.09 2.64248 1788.94 4.40936C1791.93 6.04034 1794.24 8.28292 1795.87 11.1371C1797.64 13.9913 1798.52 17.1173 1798.52 20.5152V119.801C1798.52 120.888 1798.86 121.839 1799.54 122.655C1800.36 123.334 1801.31 123.674 1802.4 123.674H1805.25C1806.34 123.674 1807.22 123.334 1807.9 122.655C1808.72 121.839 1809.13 120.888 1809.13 119.801V20.5152C1809.13 17.1173 1809.94 13.9913 1811.57 11.1371C1813.34 8.28292 1815.65 6.04034 1818.5 4.40936C1821.49 2.64248 1824.69 1.75903 1828.09 1.75903H1883.95C1887.21 1.75903 1890.27 2.64248 1893.12 4.40936C1896.11 6.04034 1898.42 8.28292 1900.05 11.1371C1901.82 13.9913 1902.7 17.1173 1902.7 20.5152V166.079H1868.45C1873.48 157.517 1877.69 149.974 1881.09 143.45C1884.49 136.926 1887.21 129.722 1889.25 121.839C1891.42 113.82 1892.51 104.17 1892.51 92.8895C1892.51 86.3657 1890.81 80.3175 1887.41 74.745C1884.15 69.1725 1879.73 64.7553 1874.16 61.4934C1868.59 58.2314 1862.54 56.6004 1856.02 56.6004C1849.22 56.6004 1843.04 58.2314 1837.46 61.4934C1831.89 64.6194 1827.47 69.0366 1824.21 74.745C1820.95 80.3175 1819.32 86.3657 1819.32 92.8895C1819.32 104.17 1820.34 113.82 1822.38 121.839C1824.55 129.722 1827.34 136.926 1830.74 143.45C1834.27 149.974 1838.55 157.517 1843.58 166.079H1764.07C1769.1 157.517 1773.31 149.974 1776.71 143.45C1780.24 136.926 1783.03 129.722 1785.07 121.839C1787.24 113.82 1788.33 104.17 1788.33 92.8895C1788.33 86.3657 1786.63 80.3175 1783.23 74.745C1779.97 69.1725 1775.55 64.7553 1769.98 61.4934C1764.41 58.2314 1758.29 56.6004 1751.63 56.6004C1744.97 56.6004 1738.86 58.2314 1733.29 61.4934C1727.71 64.6194 1723.3 69.0366 1720.03 74.745C1716.77 80.3175 1715.14 86.3657 1715.14 92.8895C1715.14 104.17 1716.16 113.82 1718.2 121.839C1720.37 129.722 1723.16 136.926 1726.56 143.45C1729.96 149.974 1734.24 157.517 1739.4 166.079H1704.95V20.5152Z" fill="#F3F3F3"/>
<path d="M1523.85 2.98218H1565.24L1609.28 124.897H1611.31L1655.35 2.98218H1696.74V166.079H1664.12V65.1629H1662.08L1624.97 166.079H1595.62L1558.51 65.1629H1556.47V166.079H1523.85V2.98218Z" fill="#F3F3F3"/>
<path d="M1255.01 167.099C1250.25 167.099 1246.18 166.079 1242.78 164.041C1239.38 161.866 1236.8 159.012 1235.03 155.478C1233.26 151.808 1232.38 147.867 1232.38 143.654V2.98226H1329.22V98.5979C1329.22 104.578 1330.65 110.151 1333.5 115.315C1336.49 120.344 1340.5 124.354 1345.53 127.344C1350.69 130.334 1356.33 131.829 1362.45 131.829C1368.43 131.829 1373.94 130.334 1378.96 127.344C1384.13 124.354 1388.14 120.344 1390.99 115.315C1393.98 110.151 1395.48 104.578 1395.48 98.5979V15.2146C1395.48 10.7294 1396.63 7.39947 1398.94 5.22485C1401.25 3.05021 1404.11 1.96289 1407.51 1.96289H1418.52C1420.83 1.96289 1422.86 2.50655 1424.63 3.59387C1426.4 4.68118 1428.03 6.24419 1429.52 8.2829C1431.02 10.1857 1432.79 13.0399 1434.83 16.8455L1513.72 154.663C1514.81 156.701 1515.42 158.604 1515.56 160.371C1515.69 162.002 1515.29 163.361 1514.33 164.448C1513.52 165.536 1512.09 166.079 1510.05 166.079H1422.8L1423 51.5036C1423 49.8727 1422.39 48.5135 1421.17 47.4262C1419.94 46.203 1418.52 45.5914 1416.88 45.5914H1413.62C1411.58 45.5914 1410.02 46.203 1408.93 47.4262C1407.98 48.6494 1407.51 50.0086 1407.51 51.5036V143.654C1407.51 150.857 1405.94 156.565 1402.82 160.779C1399.83 164.992 1394.19 167.099 1385.9 167.099H1255.01Z" fill="#F3F3F3"/>
<path d="M1151.03 167.914C1128.74 167.914 1110.66 163.021 1096.8 153.236C1083.07 143.45 1076.28 128.567 1076.41 108.588H1108.83C1108.69 117.966 1112.63 125.305 1120.65 130.606C1128.67 135.906 1138.8 138.557 1151.03 138.557C1176.31 138.557 1188.95 132.373 1188.95 120.004C1188.95 115.655 1187.66 112.121 1185.07 109.403C1182.49 106.685 1178.41 104.51 1172.84 102.879C1167.41 101.112 1159.79 99.6174 1150.01 98.3941C1127.99 95.5399 1110.93 90.2393 1098.84 82.4921C1086.88 74.745 1080.9 63.6001 1080.9 49.0573C1080.9 38.7278 1083.89 29.9613 1089.87 22.7578C1095.85 15.5544 1104.07 10.1178 1114.54 6.44813C1125.14 2.77845 1137.3 0.943604 1151.03 0.943604C1167.75 0.943604 1181.2 3.72983 1191.39 9.30232C1201.59 14.7389 1208.93 21.5346 1213.41 29.6895C1217.9 37.7084 1220.48 45.9312 1221.16 54.3579H1188.34C1187.66 46.7467 1184.06 40.8344 1177.53 36.6211C1171.14 32.2718 1162.31 30.0972 1151.03 30.0972C1139.2 30.0972 1130.03 31.7282 1123.51 34.9901C1117.12 38.1162 1113.92 42.8052 1113.92 49.0573C1113.92 53.1347 1115.21 56.5325 1117.8 59.2508C1120.52 61.8332 1124.66 64.0078 1130.23 65.7747C1135.94 67.4057 1143.69 68.9687 1153.47 70.4637C1175.76 73.7257 1192.62 78.7545 1204.03 85.5502C1215.59 92.3459 1221.36 102.675 1221.36 116.539C1221.36 125.373 1218.71 133.732 1213.41 141.615C1208.11 149.498 1200.16 155.886 1189.56 160.779C1178.96 165.536 1166.11 167.914 1151.03 167.914Z" fill="#F3F3F3"/>
<path d="M3078.25 2.98218H3164.08C3173.73 2.98218 3182.23 5.08883 3189.57 9.30217C3197.04 13.3796 3202.82 19.156 3206.89 26.6313C3210.97 34.1065 3213.01 42.6691 3213.01 52.319C3213.01 65.7746 3209.61 77.0554 3202.82 86.1617C3196.16 95.2679 3187.05 101.044 3175.5 103.491L3176.11 94.3165L3226.06 166.079H3185.28L3142.68 104.714H3110.87V166.079H3078.25V2.98218ZM3159.6 77.3952C3166.39 77.3952 3172.1 75.1526 3176.72 70.6675C3181.34 66.1823 3183.65 60.6778 3183.65 54.1539C3183.65 47.4941 3181.48 42.1255 3177.13 38.0481C3172.92 33.8347 3167.75 31.728 3161.64 31.728H3110.87V77.3952H3159.6Z" fill="#F3F3F3"/>
<path d="M3002.05 166.079C2999.06 166.079 2996.2 165.332 2993.48 163.837C2990.9 162.342 2988.86 160.303 2987.37 157.721C2985.87 155.002 2985.12 152.148 2985.12 149.158V94.9282C2985.12 91.938 2985.87 89.1518 2987.37 86.5694C2988.86 83.8511 2990.9 81.7445 2993.48 80.2494C2996.2 78.7544 2999.06 78.0068 3002.05 78.0068H3056.89C3057.29 78.0068 3057.57 77.9389 3057.7 77.8029C3057.97 77.5311 3058.11 77.1913 3058.11 76.7836V74.9488C3058.11 74.6769 3057.97 74.4731 3057.7 74.3372C3057.57 74.0653 3057.29 73.9294 3056.89 73.9294H3002.86C2999.33 73.9294 2996.34 72.7062 2993.89 70.2597C2991.58 67.8133 2990.42 64.8911 2990.42 61.4933V15.2145C2990.42 11.8166 2991.58 8.96239 2993.89 6.65185C2996.34 4.2054 2999.33 2.98218 3002.86 2.98218H3069.93V32.7474C3069.93 34.3784 3069.32 35.8055 3068.1 37.0287C3066.88 38.116 3065.45 38.6597 3063.82 38.6597H3053.01C3051.38 38.6597 3049.96 38.116 3048.73 37.0287C3047.51 35.8055 3046.9 34.3784 3046.9 32.7474V11.5448H3042.82V41.1061H3059.13C3062.66 41.1061 3065.72 42.3973 3068.3 44.9797C3070.89 47.562 3072.18 50.5522 3072.18 53.95V104.306C3072.18 107.025 3071.5 109.539 3070.14 111.849C3068.78 114.024 3066.94 115.791 3064.63 117.15C3062.46 118.509 3060.01 119.189 3057.29 119.189H3042.82V158.332H3046.9V128.159C3046.9 126.392 3047.51 124.897 3048.73 123.674C3049.96 122.451 3051.38 121.839 3053.01 121.839H3065.45C3067.08 121.839 3068.51 122.451 3069.73 123.674C3070.95 124.897 3071.57 126.392 3071.57 128.159V166.079H3002.05Z" fill="#F3F3F3"/>
<path d="M2781.3 20.5152C2781.3 17.1173 2782.12 13.9913 2783.75 11.1371C2785.38 8.28292 2787.62 6.04034 2790.47 4.40936C2793.46 2.64248 2796.73 1.75903 2800.26 1.75903H2855.92C2859.31 1.75903 2862.44 2.64248 2865.29 4.40936C2868.28 6.04034 2870.6 8.28292 2872.23 11.1371C2873.99 13.9913 2874.88 17.1173 2874.88 20.5152V119.801C2874.88 120.888 2875.22 121.839 2875.9 122.655C2876.71 123.334 2877.66 123.674 2878.75 123.674H2881.6C2882.69 123.674 2883.58 123.334 2884.25 122.655C2885.07 121.839 2885.48 120.888 2885.48 119.801V20.5152C2885.48 17.1173 2886.29 13.9913 2887.92 11.1371C2889.69 8.28292 2892 6.04034 2894.86 4.40936C2897.85 2.64248 2901.04 1.75903 2904.44 1.75903H2960.3C2963.56 1.75903 2966.62 2.64248 2969.47 4.40936C2972.46 6.04034 2974.77 8.28292 2976.4 11.1371C2978.17 13.9913 2979.06 17.1173 2979.06 20.5152V166.079H2944.8C2949.83 157.517 2954.05 149.974 2957.44 143.45C2960.84 136.926 2963.56 129.722 2965.6 121.839C2967.77 113.82 2968.86 104.17 2968.86 92.8895C2968.86 86.3657 2967.16 80.3175 2963.76 74.745C2960.5 69.1725 2956.09 64.7553 2950.51 61.4934C2944.94 58.2314 2938.89 56.6004 2932.37 56.6004C2925.57 56.6004 2919.39 58.2314 2913.82 61.4934C2908.24 64.6194 2903.83 69.0366 2900.56 74.745C2897.3 80.3175 2895.67 86.3657 2895.67 92.8895C2895.67 104.17 2896.69 113.82 2898.73 121.839C2900.9 129.722 2903.69 136.926 2907.09 143.45C2910.62 149.974 2914.9 157.517 2919.93 166.079H2840.42C2845.45 157.517 2849.66 149.974 2853.06 143.45C2856.6 136.926 2859.38 129.722 2861.42 121.839C2863.6 113.82 2864.68 104.17 2864.68 92.8895C2864.68 86.3657 2862.98 80.3175 2859.59 74.745C2856.32 69.1725 2851.91 64.7553 2846.33 61.4934C2840.76 58.2314 2834.65 56.6004 2827.99 56.6004C2821.33 56.6004 2815.21 58.2314 2809.64 61.4934C2804.07 64.6194 2799.65 69.0366 2796.39 74.745C2793.12 80.3175 2791.49 86.3657 2791.49 92.8895C2791.49 104.17 2792.51 113.82 2794.55 121.839C2796.73 129.722 2799.51 136.926 2802.91 143.45C2806.31 149.974 2810.59 157.517 2815.75 166.079H2781.3V20.5152Z" fill="#F3F3F3"/>
<path d="M2600.21 2.98218H2641.59L2685.63 124.897H2687.67L2731.7 2.98218H2773.09V166.079H2740.47V65.1629H2738.43L2701.33 166.079H2671.97L2634.86 65.1629H2632.83V166.079H2600.21V2.98218Z" fill="#F3F3F3"/>
<path d="M2331.36 167.099C2326.61 167.099 2322.53 166.079 2319.13 164.041C2315.73 161.866 2313.15 159.012 2311.38 155.478C2309.62 151.808 2308.73 147.867 2308.73 143.654V2.98226H2405.57V98.5979C2405.57 104.578 2407 110.151 2409.85 115.315C2412.84 120.344 2416.85 124.354 2421.88 127.344C2427.05 130.334 2432.69 131.829 2438.8 131.829C2444.78 131.829 2450.29 130.334 2455.32 127.344C2460.48 124.354 2464.49 120.344 2467.35 115.315C2470.34 110.151 2471.83 104.578 2471.83 98.5979V15.2146C2471.83 10.7294 2472.99 7.39947 2475.3 5.22485C2477.61 3.05021 2480.46 1.96289 2483.86 1.96289H2494.87C2497.18 1.96289 2499.22 2.50655 2500.98 3.59387C2502.75 4.68118 2504.38 6.24419 2505.88 8.2829C2507.37 10.1857 2509.14 13.0399 2511.18 16.8455L2590.08 154.663C2591.16 156.701 2591.77 158.604 2591.91 160.371C2592.05 162.002 2591.64 163.361 2590.69 164.448C2589.87 165.536 2588.44 166.079 2586.41 166.079H2499.15L2499.35 51.5036C2499.35 49.8727 2498.74 48.5135 2497.52 47.4262C2496.3 46.203 2494.87 45.5914 2493.24 45.5914H2489.98C2487.94 45.5914 2486.37 46.203 2485.29 47.4262C2484.33 48.6494 2483.86 50.0086 2483.86 51.5036V143.654C2483.86 150.857 2482.3 156.565 2479.17 160.779C2476.18 164.992 2470.54 167.099 2462.25 167.099H2331.36Z" fill="#F3F3F3"/>
<path d="M2227.38 167.914C2205.09 167.914 2187.01 163.021 2173.15 153.236C2159.42 143.45 2152.63 128.567 2152.76 108.588H2185.18C2185.04 117.966 2188.98 125.305 2197 130.606C2205.02 135.906 2215.15 138.557 2227.38 138.557C2252.66 138.557 2265.3 132.373 2265.3 120.004C2265.3 115.655 2264.01 112.121 2261.43 109.403C2258.84 106.685 2254.77 104.51 2249.19 102.879C2243.76 101.112 2236.15 99.6174 2226.36 98.3941C2204.34 95.5399 2187.29 90.2393 2175.19 82.4921C2163.23 74.745 2157.25 63.6001 2157.25 49.0573C2157.25 38.7278 2160.24 29.9613 2166.22 22.7578C2172.2 15.5544 2180.42 10.1178 2190.89 6.44813C2201.49 2.77845 2213.65 0.943604 2227.38 0.943604C2244.1 0.943604 2257.55 3.72983 2267.75 9.30232C2277.94 14.7389 2285.28 21.5346 2289.77 29.6895C2294.25 37.7084 2296.83 45.9312 2297.51 54.3579H2264.69C2264.01 46.7467 2260.41 40.8344 2253.88 36.6211C2247.5 32.2718 2238.66 30.0972 2227.38 30.0972C2215.56 30.0972 2206.38 31.7282 2199.86 34.9901C2193.47 38.1162 2190.28 42.8052 2190.28 49.0573C2190.28 53.1347 2191.57 56.5325 2194.15 59.2508C2196.87 61.8332 2201.01 64.0078 2206.59 65.7747C2212.29 67.4057 2220.04 68.9687 2229.83 70.4637C2252.12 73.7257 2268.97 78.7545 2280.39 85.5502C2291.94 92.3459 2297.72 102.675 2297.72 116.539C2297.72 125.373 2295.07 133.732 2289.77 141.615C2284.46 149.498 2276.51 155.886 2265.91 160.779C2255.31 165.536 2242.47 167.914 2227.38 167.914Z" fill="#F3F3F3"/>
</svg>
