<svg width="391" height="123" viewBox="0 0 391 123" fill="none" xmlns="http://www.w3.org/2000/svg">
<path d="M327.395 1.49054H357.655L389.853 90.6313H391.343L423.541 1.49054H453.801V120.742H429.951V46.9553H428.46L401.331 120.742H379.865L352.736 46.9553H351.245V120.742H327.395V1.49054Z" fill="#F3F3F3"/>
<path d="M130.822 121.488C127.343 121.488 124.362 120.742 121.878 119.252C119.393 117.662 117.505 115.575 116.213 112.991C114.921 110.308 114.275 107.426 114.275 104.345V1.49058H185.081V71.402C185.081 75.7746 186.125 79.849 188.212 83.6253C190.398 87.3022 193.329 90.2338 197.006 92.4201C200.783 94.6064 204.907 95.6996 209.379 95.6996C213.751 95.6996 217.776 94.6064 221.453 92.4201C225.229 90.2338 228.161 87.3022 230.248 83.6253C232.434 79.849 233.527 75.7746 233.527 71.402V10.4345C233.527 7.15504 234.372 4.72031 236.061 3.13029C237.751 1.54026 239.838 0.745239 242.322 0.745239H250.372C252.061 0.745239 253.552 1.14275 254.844 1.93776C256.135 2.73278 257.328 3.8756 258.421 5.36625C259.514 6.75752 260.806 8.84443 262.297 11.627L319.985 112.395C320.78 113.885 321.227 115.277 321.326 116.569C321.426 117.761 321.128 118.755 320.432 119.55C319.836 120.345 318.792 120.742 317.302 120.742H253.502L253.651 36.968C253.651 35.7755 253.204 34.7817 252.309 33.9867C251.415 33.0923 250.372 32.6451 249.179 32.6451H246.794C245.303 32.6451 244.161 33.0923 243.366 33.9867C242.67 34.8811 242.322 35.8749 242.322 36.968V104.345C242.322 109.612 241.179 113.786 238.894 116.867C236.707 119.947 232.583 121.488 226.521 121.488H130.822Z" fill="#F3F3F3"/>
<path d="M54.7916 122.084C38.4939 122.084 25.2768 118.507 15.1404 111.351C5.10333 104.196 0.134507 93.3146 0.233883 78.7062H23.9352C23.8358 85.5632 26.7177 90.9296 32.581 94.8053C38.4442 98.6809 45.8477 100.619 54.7916 100.619C73.2757 100.619 82.5177 96.0971 82.5177 87.0539C82.5177 83.8738 81.5736 81.29 79.6854 79.3025C77.7973 77.315 74.816 75.7249 70.7416 74.5324C66.7665 73.2405 61.2014 72.1474 54.0463 71.253C37.9473 69.1661 25.4755 65.2904 16.631 59.6259C7.88588 53.9615 3.51331 45.8126 3.51331 35.1793C3.51331 27.6267 5.69959 21.2169 10.0722 15.9499C14.4447 10.683 20.457 6.70792 28.109 4.02475C35.8604 1.34158 44.7546 0 54.7916 0C67.0149 0 76.8532 2.03721 84.3064 6.11165C91.7597 10.0867 97.126 15.0555 100.405 21.0181C103.685 26.8814 105.573 32.8936 106.07 39.055H82.0705C81.5736 33.4899 78.9401 29.167 74.17 26.0863C69.4993 22.9063 63.0399 21.3163 54.7916 21.3163C46.1459 21.3163 39.4379 22.5088 34.6679 24.8938C29.9972 27.1795 27.6618 30.608 27.6618 35.1793C27.6618 38.1606 28.6059 40.645 30.494 42.6326C32.4816 44.5207 35.5126 46.1107 39.587 47.4026C43.7608 48.5951 49.4253 49.738 56.5804 50.8311C72.8782 53.2161 85.2008 56.8931 93.5485 61.8619C101.995 66.8307 106.219 74.3834 106.219 84.5198C106.219 90.9792 104.281 97.0909 100.405 102.855C96.5298 108.619 90.7162 113.289 82.9649 116.867C75.2135 120.345 65.8224 122.084 54.7916 122.084Z" fill="#F3F3F3"/>
</svg>
