<svg width="3227" height="167" viewBox="0 0 3227 167" fill="none" xmlns="http://www.w3.org/2000/svg">
<path d="M928.435 1.63086H965.335L1039.54 113.964H1041.58V1.63086H1074.2V164.728H1036.08L963.093 56.88H961.054V164.728H928.435V1.63086Z" fill="#F3F3F3"/>
<path d="M887.7 1.63086H920.32V164.728H887.7V1.63086Z" fill="#F3F3F3"/>
<path d="M714.224 165.747C710.418 165.747 706.952 164.864 703.826 163.097C700.7 161.194 698.186 158.748 696.283 155.758C694.516 152.632 693.633 149.166 693.633 145.36V116.41C693.633 107.44 695.807 99.2173 700.157 91.742C704.506 84.1308 710.418 78.1506 717.894 73.8013C725.505 69.4521 733.863 67.2774 742.97 67.2774H798.423C802.772 67.2774 806.374 66.0542 809.228 63.6077C812.082 61.1613 813.917 58.1712 814.732 54.6374C815.684 50.9677 815.684 47.5699 814.732 44.4438C813.781 41.3178 812.014 38.8714 809.432 37.1045C806.985 35.2017 804.063 34.0464 800.665 33.6387C797.267 33.2309 793.802 33.6387 790.268 34.8619L744.397 50.1522V1.63086H796.996C800.258 1.63086 803.044 2.31043 805.354 3.66957C807.801 5.02871 809.772 7.20334 811.267 10.1935L879.971 150.049C881.33 152.903 881.806 155.486 881.398 157.796C880.991 159.971 879.971 161.67 878.34 162.893C876.709 164.116 874.942 164.728 873.04 164.728H815.344C812.49 164.728 810.111 163.777 808.209 161.874C806.442 159.835 806.17 157.253 807.393 154.127L814.936 135.778L817.587 129.254C820.713 121.371 822.955 115.051 824.314 110.294C825.809 105.401 826.557 100.984 826.557 97.0426C826.557 92.4216 825.062 88.548 822.072 85.422C819.218 82.296 815.344 80.7329 810.451 80.7329C805.966 80.7329 802.092 82.3639 798.83 85.6259C795.704 88.7519 794.141 92.5575 794.141 97.0426V145.36C794.141 149.03 793.19 152.428 791.287 155.554C789.52 158.68 787.074 161.194 783.948 163.097C780.822 164.864 777.424 165.747 773.754 165.747H714.224ZM744.397 144.952C749.697 144.952 754.522 143.729 758.872 141.283C763.221 138.7 766.619 135.235 769.065 130.885C771.648 126.536 772.939 121.643 772.939 116.207C772.939 110.906 771.648 106.081 769.065 101.732C766.619 97.3824 763.221 93.9846 758.872 91.5381C754.522 88.9557 749.697 87.6646 744.397 87.6646C739.096 87.6646 734.203 88.9557 729.718 91.5381C725.369 93.9846 721.903 97.3824 719.321 101.732C716.874 106.081 715.651 110.906 715.651 116.207C715.651 121.643 716.874 126.536 719.321 130.885C721.903 135.235 725.369 138.7 729.718 141.283C734.067 143.729 738.96 144.952 744.397 144.952Z" fill="#F3F3F3"/>
<path d="M547.825 1.63088H580.445V68.0929H654.858V1.427H687.477V164.524H654.858V99.2853H580.445V164.728H547.825V1.63088Z" fill="#F3F3F3"/>
<path d="M377.202 1.63086H539.687V77.8787H529.494C528.542 65.7824 524.872 54.7054 518.485 44.6477C512.097 34.4541 503.67 26.4352 493.204 20.5909C482.739 14.6107 471.254 11.6205 458.75 11.6205C445.838 11.6205 433.878 14.8145 422.869 21.2025C411.996 27.5905 403.365 36.289 396.977 47.298C390.589 58.1712 387.395 70.0637 387.395 82.9755C387.395 95.8874 390.589 107.78 396.977 118.653C403.365 129.526 411.996 138.157 422.869 144.545C433.878 150.797 445.838 153.923 458.75 153.923C471.526 153.923 483.215 150.865 493.816 144.749C504.553 138.496 513.048 130.342 519.3 120.284C525.552 110.09 528.95 99.3532 529.494 88.0723H539.687V164.728H377.202V1.63086Z" fill="#F3F3F3"/>
<path d="M223.183 1.63086H260.084L334.293 113.964H336.332V1.63086H368.951V164.728H330.827L257.841 56.88H255.803V164.728H223.183V1.63086Z" fill="#F3F3F3"/>
<path d="M0 70.7434C0 56.2005 4.07743 43.6285 12.2323 33.0272C20.5231 22.2899 32.2117 14.1351 47.2982 8.5626C62.3846 2.8542 79.9176 0 99.897 0H115.595C135.439 0 152.836 2.8542 167.786 8.5626C182.873 14.1351 194.493 22.2899 202.648 33.0272C210.939 43.6285 215.084 56.2005 215.084 70.7434V95.6157C215.084 110.158 210.939 122.799 202.648 133.536C194.493 144.137 182.873 152.292 167.786 158C152.836 163.573 135.439 166.359 115.595 166.359H99.897C79.9176 166.359 62.3846 163.573 47.2982 158C32.2117 152.292 20.5231 144.137 12.2323 133.536C4.07743 122.799 0 110.158 0 95.6157V70.7434ZM186.746 128.439C187.969 128.439 189.057 128.167 190.008 127.623C190.96 127.08 191.707 126.332 192.251 125.381C192.794 124.429 193.066 123.342 193.066 122.119V53.2104C193.066 52.1231 192.794 51.1038 192.251 50.1524C191.707 49.201 190.96 48.4534 190.008 47.9098C189.057 47.3661 187.969 47.0943 186.746 47.0943H28.1343C27.0469 47.0943 26.0276 47.3661 25.0762 47.9098C24.1248 48.4534 23.3773 49.201 22.8336 50.1524C22.2899 51.1038 22.0181 52.1231 22.0181 53.2104V122.119C22.0181 123.342 22.2899 124.429 22.8336 125.381C23.3773 126.332 24.1248 127.08 25.0762 127.623C26.0276 128.167 27.0469 128.439 28.1343 128.439H186.746Z" fill="#F3F3F3"/>
<path d="M2004.79 1.63086H2041.69L2115.9 113.964H2117.94V1.63086H2150.56V164.728H2112.43L2039.45 56.88H2037.41V164.728H2004.79V1.63086Z" fill="#F3F3F3"/>
<path d="M1964.05 1.63086H1996.67V164.728H1964.05V1.63086Z" fill="#F3F3F3"/>
<path d="M1790.58 165.747C1786.77 165.747 1783.31 164.864 1780.18 163.097C1777.05 161.194 1774.54 158.748 1772.64 155.758C1770.87 152.632 1769.99 149.166 1769.99 145.36V116.41C1769.99 107.44 1772.16 99.2173 1776.51 91.742C1780.86 84.1308 1786.77 78.1506 1794.25 73.8013C1801.86 69.4521 1810.22 67.2774 1819.32 67.2774H1874.78C1879.13 67.2774 1882.73 66.0542 1885.58 63.6077C1888.44 61.1613 1890.27 58.1712 1891.09 54.6374C1892.04 50.9677 1892.04 47.5699 1891.09 44.4438C1890.13 41.3178 1888.37 38.8714 1885.79 37.1045C1883.34 35.2017 1880.42 34.0464 1877.02 33.6387C1873.62 33.2309 1870.16 33.6387 1866.62 34.8619L1820.75 50.1522V1.63086H1873.35C1876.61 1.63086 1879.4 2.31043 1881.71 3.66957C1884.15 5.02871 1886.13 7.20334 1887.62 10.1935L1956.32 150.049C1957.68 152.903 1958.16 155.486 1957.75 157.796C1957.34 159.971 1956.32 161.67 1954.69 162.893C1953.06 164.116 1951.3 164.728 1949.39 164.728H1891.7C1888.84 164.728 1886.46 163.777 1884.56 161.874C1882.8 159.835 1882.52 157.253 1883.75 154.127L1891.29 135.778L1893.94 129.254C1897.07 121.371 1899.31 115.051 1900.67 110.294C1902.16 105.401 1902.91 100.984 1902.91 97.0426C1902.91 92.4216 1901.42 88.548 1898.43 85.422C1895.57 82.296 1891.7 80.7329 1886.8 80.7329C1882.32 80.7329 1878.45 82.3639 1875.18 85.6259C1872.06 88.7519 1870.49 92.5575 1870.49 97.0426V145.36C1870.49 149.03 1869.54 152.428 1867.64 155.554C1865.87 158.68 1863.43 161.194 1860.3 163.097C1857.18 164.864 1853.78 165.747 1850.11 165.747H1790.58ZM1820.75 144.952C1826.05 144.952 1830.88 143.729 1835.23 141.283C1839.57 138.7 1842.97 135.235 1845.42 130.885C1848 126.536 1849.29 121.643 1849.29 116.207C1849.29 110.906 1848 106.081 1845.42 101.732C1842.97 97.3824 1839.57 93.9846 1835.23 91.5381C1830.88 88.9557 1826.05 87.6646 1820.75 87.6646C1815.45 87.6646 1810.56 88.9557 1806.07 91.5381C1801.72 93.9846 1798.26 97.3824 1795.67 101.732C1793.23 106.081 1792 110.906 1792 116.207C1792 121.643 1793.23 126.536 1795.67 130.885C1798.26 135.235 1801.72 138.7 1806.07 141.283C1810.42 143.729 1815.31 144.952 1820.75 144.952Z" fill="#F3F3F3"/>
<path d="M1624.18 1.63088H1656.8V68.0929H1731.21V1.427H1763.83V164.524H1731.21V99.2853H1656.8V164.728H1624.18V1.63088Z" fill="#F3F3F3"/>
<path d="M1453.56 1.63086H1616.04V77.8787H1605.85C1604.9 65.7824 1601.23 54.7054 1594.84 44.6477C1588.45 34.4541 1580.02 26.4352 1569.56 20.5909C1559.09 14.6107 1547.61 11.6205 1535.1 11.6205C1522.19 11.6205 1510.23 14.8145 1499.22 21.2025C1488.35 27.5905 1479.72 36.289 1473.33 47.298C1466.94 58.1712 1463.75 70.0637 1463.75 82.9755C1463.75 95.8874 1466.94 107.78 1473.33 118.653C1479.72 129.526 1488.35 138.157 1499.22 144.545C1510.23 150.797 1522.19 153.923 1535.1 153.923C1547.88 153.923 1559.57 150.865 1570.17 144.749C1580.91 138.496 1589.4 130.342 1595.65 120.284C1601.91 110.09 1605.3 99.3532 1605.85 88.0723H1616.04V164.728H1453.56V1.63086Z" fill="#F3F3F3"/>
<path d="M1299.54 1.63086H1336.44L1410.65 113.964H1412.68V1.63086H1445.3V164.728H1407.18L1334.19 56.88H1332.16V164.728H1299.54V1.63086Z" fill="#F3F3F3"/>
<path d="M1076.35 70.7434C1076.35 56.2005 1080.43 43.6285 1088.59 33.0272C1096.88 22.2899 1108.57 14.1351 1123.65 8.5626C1138.74 2.8542 1156.27 0 1176.25 0H1191.95C1211.79 0 1229.19 2.8542 1244.14 8.5626C1259.23 14.1351 1270.85 22.2899 1279 33.0272C1287.29 43.6285 1291.44 56.2005 1291.44 70.7434V95.6157C1291.44 110.158 1287.29 122.799 1279 133.536C1270.85 144.137 1259.23 152.292 1244.14 158C1229.19 163.573 1211.79 166.359 1191.95 166.359H1176.25C1156.27 166.359 1138.74 163.573 1123.65 158C1108.57 152.292 1096.88 144.137 1088.59 133.536C1080.43 122.799 1076.35 110.158 1076.35 95.6157V70.7434ZM1263.1 128.439C1264.32 128.439 1265.41 128.167 1266.36 127.623C1267.31 127.08 1268.06 126.332 1268.6 125.381C1269.15 124.429 1269.42 123.342 1269.42 122.119V53.2104C1269.42 52.1231 1269.15 51.1038 1268.6 50.1524C1268.06 49.201 1267.31 48.4534 1266.36 47.9098C1265.41 47.3661 1264.32 47.0943 1263.1 47.0943H1104.49C1103.4 47.0943 1102.38 47.3661 1101.43 47.9098C1100.48 48.4534 1099.73 49.201 1099.19 50.1524C1098.64 51.1038 1098.37 52.1231 1098.37 53.2104V122.119C1098.37 123.342 1098.64 124.429 1099.19 125.381C1099.73 126.332 1100.48 127.08 1101.43 127.623C1102.38 128.167 1103.4 128.439 1104.49 128.439H1263.1Z" fill="#F3F3F3"/>
<path d="M3081.14 1.63086H3118.04L3192.25 113.964H3194.29V1.63086H3226.91V164.728H3188.78L3115.8 56.88H3113.76V164.728H3081.14V1.63086Z" fill="#F3F3F3"/>
<path d="M3040.41 1.63086H3073.03V164.728H3040.41V1.63086Z" fill="#F3F3F3"/>
<path d="M2866.93 165.747C2863.12 165.747 2859.66 164.864 2856.53 163.097C2853.41 161.194 2850.89 158.748 2848.99 155.758C2847.22 152.632 2846.34 149.166 2846.34 145.36V116.41C2846.34 107.44 2848.51 99.2173 2852.86 91.742C2857.21 84.1308 2863.12 78.1506 2870.6 73.8013C2878.21 69.4521 2886.57 67.2774 2895.68 67.2774H2951.13C2955.48 67.2774 2959.08 66.0542 2961.93 63.6077C2964.79 61.1613 2966.62 58.1712 2967.44 54.6374C2968.39 50.9677 2968.39 47.5699 2967.44 44.4438C2966.49 41.3178 2964.72 38.8714 2962.14 37.1045C2959.69 35.2017 2956.77 34.0464 2953.37 33.6387C2949.97 33.2309 2946.51 33.6387 2942.97 34.8619L2897.1 50.1522V1.63086H2949.7C2952.96 1.63086 2955.75 2.31043 2958.06 3.66957C2960.51 5.02871 2962.48 7.20334 2963.97 10.1935L3032.68 150.049C3034.04 152.903 3034.51 155.486 3034.1 157.796C3033.7 159.971 3032.68 161.67 3031.05 162.893C3029.42 164.116 3027.65 164.728 3025.75 164.728H2968.05C2965.2 164.728 2962.82 163.777 2960.91 161.874C2959.15 159.835 2958.88 157.253 2960.1 154.127L2967.64 135.778L2970.29 129.254C2973.42 121.371 2975.66 115.051 2977.02 110.294C2978.52 105.401 2979.26 100.984 2979.26 97.0426C2979.26 92.4216 2977.77 88.548 2974.78 85.422C2971.92 82.296 2968.05 80.7329 2963.16 80.7329C2958.67 80.7329 2954.8 82.3639 2951.54 85.6259C2948.41 88.7519 2946.85 92.5575 2946.85 97.0426V145.36C2946.85 149.03 2945.9 152.428 2943.99 155.554C2942.23 158.68 2939.78 161.194 2936.65 163.097C2933.53 164.864 2930.13 165.747 2926.46 165.747H2866.93ZM2897.1 144.952C2902.4 144.952 2907.23 143.729 2911.58 141.283C2915.93 138.7 2919.32 135.235 2921.77 130.885C2924.35 126.536 2925.64 121.643 2925.64 116.207C2925.64 110.906 2924.35 106.081 2921.77 101.732C2919.32 97.3824 2915.93 93.9846 2911.58 91.5381C2907.23 88.9557 2902.4 87.6646 2897.1 87.6646C2891.8 87.6646 2886.91 88.9557 2882.42 91.5381C2878.07 93.9846 2874.61 97.3824 2872.03 101.732C2869.58 106.081 2868.36 110.906 2868.36 116.207C2868.36 121.643 2869.58 126.536 2872.03 130.885C2874.61 135.235 2878.07 138.7 2882.42 141.283C2886.77 143.729 2891.67 144.952 2897.1 144.952Z" fill="#F3F3F3"/>
<path d="M2700.53 1.63088H2733.15V68.0929H2807.56V1.427H2840.18V164.524H2807.56V99.2853H2733.15V164.728H2700.53V1.63088Z" fill="#F3F3F3"/>
<path d="M2529.91 1.63086H2692.39V77.8787H2682.2C2681.25 65.7824 2677.58 54.7054 2671.19 44.6477C2664.8 34.4541 2656.38 26.4352 2645.91 20.5909C2635.45 14.6107 2623.96 11.6205 2611.46 11.6205C2598.54 11.6205 2586.58 14.8145 2575.58 21.2025C2564.7 27.5905 2556.07 36.289 2549.68 47.298C2543.3 58.1712 2540.1 70.0637 2540.1 82.9755C2540.1 95.8874 2543.3 107.78 2549.68 118.653C2556.07 129.526 2564.7 138.157 2575.58 144.545C2586.58 150.797 2598.54 153.923 2611.46 153.923C2624.23 153.923 2635.92 150.865 2646.52 144.749C2657.26 138.496 2665.75 130.342 2672.01 120.284C2678.26 110.09 2681.66 99.3532 2682.2 88.0723H2692.39V164.728H2529.91V1.63086Z" fill="#F3F3F3"/>
<path d="M2375.89 1.63086H2412.79L2487 113.964H2489.04V1.63086H2521.66V164.728H2483.53L2410.55 56.88H2408.51V164.728H2375.89V1.63086Z" fill="#F3F3F3"/>
<path d="M2152.71 70.7434C2152.71 56.2005 2156.78 43.6285 2164.94 33.0272C2173.23 22.2899 2184.92 14.1351 2200 8.5626C2215.09 2.8542 2232.62 0 2252.6 0H2268.3C2288.14 0 2305.54 2.8542 2320.49 8.5626C2335.58 14.1351 2347.2 22.2899 2355.35 33.0272C2363.64 43.6285 2367.79 56.2005 2367.79 70.7434V95.6157C2367.79 110.158 2363.64 122.799 2355.35 133.536C2347.2 144.137 2335.58 152.292 2320.49 158C2305.54 163.573 2288.14 166.359 2268.3 166.359H2252.6C2232.62 166.359 2215.09 163.573 2200 158C2184.92 152.292 2173.23 144.137 2164.94 133.536C2156.78 122.799 2152.71 110.158 2152.71 95.6157V70.7434ZM2339.45 128.439C2340.68 128.439 2341.76 128.167 2342.71 127.623C2343.67 127.08 2344.41 126.332 2344.96 125.381C2345.5 124.429 2345.77 123.342 2345.77 122.119V53.2104C2345.77 52.1231 2345.5 51.1038 2344.96 50.1524C2344.41 49.201 2343.67 48.4534 2342.71 47.9098C2341.76 47.3661 2340.68 47.0943 2339.45 47.0943H2180.84C2179.75 47.0943 2178.73 47.3661 2177.78 47.9098C2176.83 48.4534 2176.08 49.201 2175.54 50.1524C2175 51.1038 2174.72 52.1231 2174.72 53.2104V122.119C2174.72 123.342 2175 124.429 2175.54 125.381C2176.08 126.332 2176.83 127.08 2177.78 127.623C2178.73 128.167 2179.75 128.439 2180.84 128.439H2339.45Z" fill="#F3F3F3"/>
</svg>
