<svg width="393" height="123" viewBox="0 0 393 123" fill="none" xmlns="http://www.w3.org/2000/svg">
<path d="M286.928 1.74841H349.684C356.74 1.74841 362.951 3.28874 368.317 6.36941C373.783 9.35071 378.006 13.5742 380.988 19.0399C383.969 24.5056 385.46 30.7664 385.46 37.8221C385.46 47.6604 382.975 55.9086 378.006 62.5669C373.137 69.2251 366.479 73.4486 358.032 75.2374L358.479 68.5295L395 121H365.187L334.032 76.1318H310.778V121H286.928V1.74841ZM346.405 56.1571C351.373 56.1571 355.547 54.5174 358.926 51.2379C362.305 47.9585 363.994 43.9338 363.994 39.1637C363.994 34.2942 362.404 30.3689 359.224 27.3876C356.144 24.3069 352.367 22.7666 347.895 22.7666H310.778V56.1571H346.405Z" fill="#F3F3F3"/>
<path d="M231.206 121C229.02 121 226.933 120.454 224.946 119.361C223.058 118.267 221.567 116.777 220.474 114.889C219.381 112.901 218.834 110.814 218.834 108.628V68.9767C218.834 66.7904 219.381 64.7531 220.474 62.865C221.567 60.8775 223.058 59.3371 224.946 58.244C226.933 57.1508 229.02 56.6043 231.206 56.6043H271.305C271.603 56.6043 271.802 56.5546 271.901 56.4552C272.1 56.2564 272.199 56.008 272.199 55.7099V54.3683C272.199 54.1695 272.1 54.0205 271.901 53.9211C271.802 53.7224 271.603 53.623 271.305 53.623H231.803C229.219 53.623 227.033 52.7286 225.244 50.9398C223.554 49.151 222.71 47.0144 222.71 44.53V10.6923C222.71 8.20789 223.554 6.12097 225.244 4.43157C227.033 2.6428 229.219 1.74841 231.803 1.74841H280.845V23.5119C280.845 24.7044 280.398 25.7479 279.503 26.6422C278.609 27.4373 277.566 27.8348 276.373 27.8348H268.473C267.28 27.8348 266.237 27.4373 265.342 26.6422C264.448 25.7479 264.001 24.7044 264.001 23.5119V8.00914H261.019V29.6235H272.945C275.528 29.6235 277.764 30.5676 279.652 32.4558C281.541 34.3439 282.485 36.5302 282.485 39.0146V75.8336C282.485 77.8212 281.988 79.6596 280.994 81.349C280 82.9391 278.659 84.231 276.969 85.2247C275.379 86.2185 273.59 86.7154 271.603 86.7154H261.019V115.336H264.001V93.2742C264.001 91.9823 264.448 90.8892 265.342 89.9948C266.237 89.1004 267.28 88.6532 268.473 88.6532H277.566C278.758 88.6532 279.802 89.1004 280.696 89.9948C281.59 90.8892 282.038 91.9823 282.038 93.2742V121H231.206Z" fill="#F3F3F3"/>
<path d="M69.8047 14.568C69.8047 12.0836 70.401 9.79796 71.5935 7.71104C72.786 5.62414 74.4257 3.98443 76.5126 2.79191C78.6989 1.50001 81.0839 0.854065 83.6677 0.854065H124.362C126.847 0.854065 129.133 1.50001 131.219 2.79191C133.406 3.98443 135.095 5.62414 136.288 7.71104C137.58 9.79796 138.225 12.0836 138.225 14.568V87.1626C138.225 87.9576 138.474 88.6533 138.971 89.2495C139.567 89.7464 140.263 89.9949 141.058 89.9949H143.145C143.94 89.9949 144.586 89.7464 145.082 89.2495C145.679 88.6533 145.977 87.9576 145.977 87.1626V14.568C145.977 12.0836 146.573 9.79796 147.766 7.71104C149.058 5.62414 150.747 3.98443 152.834 2.79191C155.02 1.50001 157.355 0.854065 159.84 0.854065H200.684C203.069 0.854065 205.305 1.50001 207.392 2.79191C209.578 3.98443 211.267 5.62414 212.46 7.71104C213.752 9.79796 214.398 12.0836 214.398 14.568V121H189.355C193.032 114.74 196.112 109.224 198.597 104.454C201.081 99.6841 203.069 94.4171 204.559 88.6533C206.149 82.79 206.944 75.7343 206.944 67.4861C206.944 62.716 205.702 58.2937 203.218 54.2193C200.833 50.1448 197.603 46.9151 193.529 44.5301C189.454 42.145 185.032 40.9525 180.262 40.9525C175.293 40.9525 170.771 42.145 166.697 44.5301C162.622 46.8157 159.393 50.0455 157.008 54.2193C154.623 58.2937 153.43 62.716 153.43 67.4861C153.43 75.7343 154.175 82.79 155.666 88.6533C157.256 94.4171 159.293 99.6841 161.778 104.454C164.362 109.224 167.492 114.74 171.169 121H113.034C116.71 114.74 119.791 109.224 122.276 104.454C124.859 99.6841 126.897 94.4171 128.387 88.6533C129.977 82.79 130.772 75.7343 130.772 67.4861C130.772 62.716 129.53 58.2937 127.046 54.2193C124.661 50.1448 121.431 46.9151 117.356 44.5301C113.282 42.145 108.81 40.9525 103.941 40.9525C99.0711 40.9525 94.5991 42.145 90.5247 44.5301C86.4503 46.8157 83.2205 50.0455 80.8355 54.2193C78.4505 58.2937 77.258 62.716 77.258 67.4861C77.258 75.7343 78.0033 82.79 79.4939 88.6533C81.0839 94.4171 83.1212 99.6841 85.6056 104.454C88.09 109.224 91.2204 114.74 94.9967 121H69.8047V14.568Z" fill="#F3F3F3"/>
<path d="M-62.6055 1.74841H-32.3453L-0.147305 90.8892H1.34334L33.5414 1.74841H63.8015V121H39.9511V47.2132H38.4605L11.3307 121H-10.1347L-37.2645 47.2132H-38.7551V121H-62.6055V1.74841Z" fill="#F3F3F3"/>
</svg>
